<svg width="376" height="120" viewBox="0 0 376 120" fill="none" xmlns="http://www.w3.org/2000/svg">
<circle cx="60" cy="60" r="60" fill="#002855"/>
<path d="M49.8764 94.7998H35.0981C34.17 94.7998 33.5932 93.7913 34.0637 92.9914L37.26 87.5577C38.3381 85.7251 40.3055 84.5998 42.4316 84.5998H46.2473C48.4381 84.5998 50.4548 83.4057 51.5082 81.4848L78.6917 31.9148C79.7451 29.9939 81.7618 28.7998 83.9526 28.7998H90.9785C91.8894 28.7998 92.4682 29.7748 92.032 30.5744L60.4111 88.546C58.3083 92.4012 54.2677 94.7998 49.8764 94.7998Z" fill="white"/>
<path d="M42.5361 28.7998H35.6397C34.7247 28.7998 34.1463 29.7829 34.5908 30.5827L53.8935 65.3169C54.3502 66.1387 55.5317 66.1399 55.9901 65.319L59.5689 58.9101C60.5828 57.0944 60.5843 54.8832 59.5727 53.0662L47.7784 31.8813C46.7194 29.9791 44.7132 28.7998 42.5361 28.7998Z" fill="#B3BFCC"/>
<path d="M172.251 96C167.149 96 162.611 94.9389 158.636 92.8166C154.721 90.6944 151.636 87.7763 149.381 84.0624C147.127 80.3485 146 76.1335 146 71.4174V29.0611H158.102V70.7984C158.102 73.5102 158.695 75.9567 159.882 78.1378C161.128 80.319 162.818 82.0286 164.954 83.2666C167.09 84.4456 169.522 85.0351 172.251 85.0351C175.039 85.0351 177.472 84.4456 179.548 83.2666C181.684 82.0286 183.345 80.319 184.531 78.1378C185.777 75.9567 186.4 73.5102 186.4 70.7984V29.0611H198.502V71.4174C198.502 76.1335 197.375 80.3485 195.121 84.0624C192.866 87.7763 189.752 90.6944 185.777 92.8166C181.862 94.9389 177.353 96 172.251 96Z" fill="#002855"/>
<path d="M232.475 96C228.263 96 224.347 95.2336 220.729 93.7009C217.169 92.1682 214.084 90.0459 211.474 87.3342C208.923 84.5635 207.054 81.3507 205.868 77.6957L215.923 73.3628C217.525 77.1357 219.839 80.1127 222.864 82.2939C225.89 84.4161 229.301 85.4772 233.098 85.4772C235.233 85.4772 237.073 85.153 238.615 84.5045C240.217 83.7971 241.433 82.8539 242.263 81.6749C243.153 80.4959 243.598 79.0811 243.598 77.4304C243.598 75.485 243.005 73.8934 241.819 72.6554C240.691 71.3585 238.971 70.3563 236.657 69.6489L223.932 65.5813C218.771 63.9896 214.885 61.6021 212.275 58.4187C209.665 55.2354 208.36 51.492 208.36 47.1886C208.36 43.4157 209.279 40.085 211.118 37.1964C213.016 34.3078 215.627 32.0676 218.949 30.4759C222.33 28.8253 226.187 28 230.517 28C234.492 28 238.14 28.7074 241.463 30.1222C244.785 31.4781 247.632 33.394 250.005 35.87C252.438 38.287 254.247 41.1461 255.433 44.4473L245.467 48.8687C244.162 45.5674 242.204 43.0325 239.594 41.264C236.984 39.4365 233.958 38.5228 230.517 38.5228C228.5 38.5228 226.72 38.8765 225.178 39.5839C223.636 40.2323 222.419 41.1756 221.53 42.4135C220.699 43.5925 220.284 45.0074 220.284 46.658C220.284 48.4855 220.877 50.1066 222.063 51.5215C223.25 52.8773 225.059 53.9384 227.492 54.7048L239.683 58.5071C244.963 60.2167 248.908 62.5748 251.518 65.5813C254.188 68.5878 255.522 72.3017 255.522 76.723C255.522 80.4959 254.544 83.8266 252.586 86.7152C250.628 89.6038 247.929 91.8734 244.488 93.5241C241.047 95.1747 237.043 96 232.475 96Z" fill="#002855"/>
<path d="M279.549 94.9389V65.7581L257.213 29.0611H271.006L288.092 57.7113H283.197L300.194 29.0611H313.987L291.74 65.6697V94.9389H279.549Z" fill="#002855"/>
<path d="M348.058 96C343.312 96 338.922 95.1452 334.888 93.4356C330.913 91.726 327.413 89.3385 324.388 86.2731C321.421 83.2076 319.108 79.6116 317.447 75.485C315.786 71.3585 314.955 66.8487 314.955 61.9558C314.955 57.0628 315.756 52.5531 317.358 48.4265C319.019 44.241 321.332 40.645 324.299 37.6385C327.324 34.573 330.854 32.215 334.888 30.5644C338.922 28.8548 343.312 28 348.058 28C352.804 28 357.046 28.7958 360.783 30.3875C364.58 31.9792 367.784 34.1014 370.394 36.7542C373.004 39.3481 374.873 42.2072 376 45.3316L365.144 50.3719C363.898 47.0707 361.792 44.3589 358.826 42.2367C355.859 40.0555 352.27 38.9649 348.058 38.9649C343.905 38.9649 340.227 39.9376 337.024 41.883C333.88 43.8283 331.418 46.5106 329.638 49.9298C327.918 53.3489 327.057 57.3576 327.057 61.9558C327.057 66.554 327.918 70.5921 329.638 74.0702C331.418 77.4894 333.88 80.1717 337.024 82.117C340.227 84.0624 343.905 85.0351 348.058 85.0351C352.27 85.0351 355.859 83.974 358.826 81.8518C361.792 79.6706 363.898 76.9293 365.144 73.6281L376 78.6684C374.873 81.7928 373.004 84.6814 370.394 87.3342C367.784 89.928 364.58 92.0208 360.783 93.6125C357.046 95.2042 352.804 96 348.058 96Z" fill="#002855"/>
</svg>
