<svg width="120" height="120" viewBox="0 0 120 120" fill="none" xmlns="http://www.w3.org/2000/svg">
<g clip-path="url(#clip0_1782_4227)">
<circle cx="60" cy="60" r="60" fill="#002855"/>
<path d="M47.8766 94.7998H33.0983C32.1702 94.7998 31.5934 93.7913 32.064 92.9914L35.2603 87.5577C36.3383 85.7251 38.3057 84.5998 40.4319 84.5998H44.2476C46.4384 84.5998 48.455 83.4057 49.5084 81.4848L76.692 31.9148C77.7454 29.9939 79.762 28.7998 81.9528 28.7998H88.9788C89.8896 28.7998 90.4684 29.7748 90.0322 30.5744L58.4114 88.546C56.3086 92.4012 52.2679 94.7998 47.8766 94.7998Z" fill="white"/>
<path d="M40.5361 28.7998H33.6397C32.7247 28.7998 32.1463 29.7829 32.5908 30.5827L51.8935 65.3169C52.3502 66.1387 53.5317 66.1399 53.9901 65.319L57.5689 58.9101C58.5828 57.0944 58.5843 54.8832 57.5727 53.0662L45.7784 31.8813C44.7194 29.9791 42.7132 28.7998 40.5361 28.7998Z" fill="#B3BFCC"/>
</g>
<defs>
<clipPath id="clip0_1782_4227">
<rect width="120" height="120" fill="white"/>
</clipPath>
</defs>
</svg>
