<svg width="377" height="164" viewBox="0 0 377 164" fill="none" xmlns="http://www.w3.org/2000/svg">
<path d="M186.055 163.172C185.623 163.172 185.191 163.136 184.759 163.064C184.327 163.016 183.919 162.908 183.535 162.74V159.752C183.799 159.776 184.123 159.824 184.507 159.896C184.915 159.968 185.311 160.004 185.695 160.004C186.823 160.004 187.675 159.752 188.251 159.248C188.851 158.744 189.415 157.892 189.943 156.692L191.167 153.776L191.095 156.692L182.815 135.848H186.451L192.895 152.408H191.815L198.223 135.848H201.931L193.183 157.556C192.775 158.588 192.247 159.536 191.599 160.4C190.975 161.264 190.207 161.936 189.295 162.416C188.383 162.92 187.303 163.172 186.055 163.172Z" fill="#4B5563"/>
<path d="M172.044 155.684C170.484 155.684 169.056 155.336 167.76 154.64C166.488 153.944 165.504 152.96 164.808 151.688L165.276 151.112V155.252H162V128H165.348V140.024L164.844 139.196C165.564 138.044 166.548 137.132 167.796 136.46C169.044 135.764 170.472 135.416 172.08 135.416C173.904 135.416 175.536 135.86 176.976 136.748C178.44 137.636 179.592 138.848 180.432 140.384C181.272 141.896 181.692 143.624 181.692 145.568C181.692 147.464 181.272 149.18 180.432 150.716C179.592 152.252 178.44 153.464 176.976 154.352C175.536 155.24 173.892 155.684 172.044 155.684ZM171.792 152.444C173.016 152.444 174.108 152.144 175.068 151.544C176.028 150.944 176.772 150.128 177.3 149.096C177.852 148.04 178.128 146.864 178.128 145.568C178.128 144.224 177.852 143.048 177.3 142.04C176.772 141.008 176.028 140.192 175.068 139.592C174.108 138.968 173.016 138.656 171.792 138.656C170.568 138.656 169.464 138.956 168.48 139.556C167.52 140.156 166.752 140.984 166.176 142.04C165.624 143.072 165.348 144.248 165.348 145.568C165.348 146.864 165.624 148.04 166.176 149.096C166.752 150.128 167.52 150.944 168.48 151.544C169.464 152.144 170.568 152.444 171.792 152.444Z" fill="#4B5563"/>
<path d="M367.177 155.684C365.161 155.684 363.397 155.228 361.885 154.316C360.373 153.404 359.197 152.168 358.357 150.608C357.517 149.048 357.097 147.32 357.097 145.424C357.097 143.456 357.517 141.716 358.357 140.204C359.221 138.668 360.385 137.456 361.849 136.568C363.337 135.68 364.993 135.236 366.817 135.236C368.353 135.236 369.697 135.488 370.849 135.992C372.025 136.496 373.021 137.192 373.837 138.08C374.653 138.968 375.277 139.988 375.709 141.14C376.141 142.268 376.357 143.492 376.357 144.812C376.357 145.148 376.333 145.496 376.285 145.856C376.261 146.216 376.201 146.528 376.105 146.792H360.985V143.192H373.441L371.209 144.884C371.425 143.78 371.365 142.796 371.029 141.932C370.717 141.068 370.189 140.384 369.445 139.88C368.725 139.376 367.849 139.124 366.817 139.124C365.833 139.124 364.957 139.376 364.189 139.88C363.421 140.36 362.833 141.08 362.425 142.04C362.041 142.976 361.897 144.116 361.993 145.46C361.897 146.66 362.053 147.728 362.461 148.664C362.893 149.576 363.517 150.284 364.333 150.788C365.173 151.292 366.133 151.544 367.213 151.544C368.293 151.544 369.205 151.316 369.949 150.86C370.717 150.404 371.317 149.792 371.749 149.024L375.565 150.896C375.181 151.832 374.581 152.66 373.765 153.38C372.949 154.1 371.977 154.664 370.849 155.072C369.745 155.48 368.521 155.684 367.177 155.684Z" fill="#002855"/>
<path d="M352.122 155.468C349.914 155.468 348.198 154.868 346.974 153.668C345.774 152.444 345.174 150.728 345.174 148.52V139.88H341.79V135.668H342.15C343.11 135.668 343.854 135.416 344.382 134.912C344.91 134.408 345.174 133.676 345.174 132.716V131.204H349.89V135.668H354.39V139.88H349.89V148.268C349.89 148.916 349.998 149.468 350.214 149.924C350.454 150.38 350.814 150.728 351.294 150.968C351.798 151.208 352.434 151.328 353.202 151.328C353.37 151.328 353.562 151.316 353.778 151.292C354.018 151.268 354.246 151.244 354.462 151.22V155.252C354.126 155.3 353.742 155.348 353.31 155.396C352.878 155.444 352.482 155.468 352.122 155.468Z" fill="#002855"/>
<path d="M329.637 155.684C327.717 155.684 325.965 155.24 324.381 154.352C322.821 153.464 321.573 152.252 320.637 150.716C319.725 149.18 319.269 147.428 319.269 145.46C319.269 143.492 319.725 141.74 320.637 140.204C321.573 138.668 322.821 137.456 324.381 136.568C325.941 135.68 327.693 135.236 329.637 135.236C331.557 135.236 333.297 135.68 334.857 136.568C336.417 137.456 337.653 138.668 338.565 140.204C339.501 141.716 339.969 143.468 339.969 145.46C339.969 147.428 339.501 149.18 338.565 150.716C337.629 152.252 336.381 153.464 334.821 154.352C333.261 155.24 331.533 155.684 329.637 155.684ZM329.637 151.364C330.693 151.364 331.617 151.112 332.409 150.608C333.225 150.104 333.861 149.408 334.317 148.52C334.797 147.608 335.037 146.588 335.037 145.46C335.037 144.308 334.797 143.3 334.317 142.436C333.861 141.548 333.225 140.852 332.409 140.348C331.617 139.82 330.693 139.556 329.637 139.556C328.557 139.556 327.609 139.82 326.793 140.348C325.977 140.852 325.329 141.548 324.849 142.436C324.393 143.3 324.165 144.308 324.165 145.46C324.165 146.588 324.393 147.608 324.849 148.52C325.329 149.408 325.977 150.104 326.793 150.608C327.609 151.112 328.557 151.364 329.637 151.364Z" fill="#002855"/>
<path d="M298.721 155.252V135.668H303.149V139.52L302.789 138.836C303.245 137.66 303.989 136.772 305.021 136.172C306.077 135.548 307.301 135.236 308.693 135.236C310.133 135.236 311.405 135.548 312.509 136.172C313.637 136.796 314.513 137.672 315.137 138.8C315.761 139.904 316.073 141.188 316.073 142.652V155.252H311.357V143.768C311.357 142.904 311.189 142.16 310.853 141.536C310.517 140.912 310.049 140.432 309.449 140.096C308.873 139.736 308.189 139.556 307.397 139.556C306.629 139.556 305.945 139.736 305.345 140.096C304.745 140.432 304.277 140.912 303.941 141.536C303.605 142.16 303.437 142.904 303.437 143.768V155.252H298.721Z" fill="#002855"/>
<path d="M277.381 155.252V128H282.097V139.52L281.449 138.836C281.905 137.66 282.649 136.772 283.681 136.172C284.737 135.548 285.961 135.236 287.353 135.236C288.793 135.236 290.065 135.548 291.169 136.172C292.297 136.796 293.173 137.672 293.797 138.8C294.421 139.904 294.733 141.188 294.733 142.652V155.252H290.017V143.768C290.017 142.904 289.849 142.16 289.513 141.536C289.177 140.912 288.709 140.432 288.109 140.096C287.533 139.736 286.849 139.556 286.057 139.556C285.289 139.556 284.605 139.736 284.005 140.096C283.405 140.432 282.937 140.912 282.601 141.536C282.265 142.16 282.097 142.904 282.097 143.768V155.252H277.381Z" fill="#002855"/>
<path d="M266.341 155.684C264.253 155.684 262.429 155.192 260.869 154.208C259.333 153.2 258.277 151.844 257.701 150.14L261.229 148.448C261.733 149.552 262.429 150.416 263.317 151.04C264.229 151.664 265.237 151.976 266.341 151.976C267.205 151.976 267.889 151.784 268.393 151.4C268.897 151.016 269.149 150.512 269.149 149.888C269.149 149.504 269.041 149.192 268.825 148.952C268.633 148.688 268.357 148.472 267.997 148.304C267.661 148.112 267.289 147.956 266.881 147.836L263.677 146.936C262.021 146.456 260.761 145.724 259.897 144.74C259.057 143.756 258.637 142.592 258.637 141.248C258.637 140.048 258.937 139.004 259.537 138.116C260.161 137.204 261.013 136.496 262.093 135.992C263.197 135.488 264.457 135.236 265.873 135.236C267.721 135.236 269.353 135.68 270.769 136.568C272.185 137.456 273.193 138.704 273.793 140.312L270.193 142.004C269.857 141.116 269.293 140.408 268.501 139.88C267.709 139.352 266.821 139.088 265.837 139.088C265.045 139.088 264.421 139.268 263.965 139.628C263.509 139.988 263.281 140.456 263.281 141.032C263.281 141.392 263.377 141.704 263.569 141.968C263.761 142.232 264.025 142.448 264.361 142.616C264.721 142.784 265.129 142.94 265.585 143.084L268.717 144.02C270.325 144.5 271.561 145.22 272.425 146.18C273.313 147.14 273.757 148.316 273.757 149.708C273.757 150.884 273.445 151.928 272.821 152.84C272.197 153.728 271.333 154.424 270.229 154.928C269.125 155.432 267.829 155.684 266.341 155.684Z" fill="#002855"/>
<path d="M243.946 155.684C242.578 155.684 241.39 155.456 240.382 155C239.374 154.544 238.594 153.896 238.042 153.056C237.49 152.192 237.214 151.196 237.214 150.068C237.214 148.988 237.454 148.028 237.934 147.188C238.414 146.324 239.158 145.604 240.166 145.028C241.174 144.452 242.446 144.044 243.982 143.804L250.39 142.76V146.36L244.882 147.296C243.946 147.464 243.25 147.764 242.794 148.196C242.338 148.628 242.11 149.192 242.11 149.888C242.11 150.56 242.362 151.1 242.866 151.508C243.394 151.892 244.042 152.084 244.81 152.084C245.794 152.084 246.658 151.88 247.402 151.472C248.17 151.04 248.758 150.452 249.166 149.708C249.598 148.964 249.814 148.148 249.814 147.26V142.22C249.814 141.38 249.478 140.684 248.806 140.132C248.158 139.556 247.294 139.268 246.214 139.268C245.206 139.268 244.306 139.544 243.514 140.096C242.746 140.624 242.182 141.332 241.822 142.22L237.97 140.348C238.354 139.316 238.954 138.428 239.77 137.684C240.61 136.916 241.594 136.316 242.722 135.884C243.85 135.452 245.074 135.236 246.394 135.236C248.002 135.236 249.418 135.536 250.642 136.136C251.866 136.712 252.814 137.528 253.486 138.584C254.182 139.616 254.53 140.828 254.53 142.22V155.252H250.066V151.904L251.074 151.832C250.57 152.672 249.97 153.38 249.274 153.956C248.578 154.508 247.786 154.94 246.898 155.252C246.01 155.54 245.026 155.684 243.946 155.684Z" fill="#002855"/>
<path d="M212 155.252V128.432H216.896V140.132H228.308V128.432H233.24V155.252H228.308V144.452H216.896V155.252H212Z" fill="#002855"/>
<circle cx="60" cy="60" r="60" fill="#002855"/>
<path d="M49.8764 94.7998H35.0981C34.17 94.7998 33.5932 93.7913 34.0637 92.9914L37.26 87.5577C38.3381 85.7251 40.3055 84.5998 42.4316 84.5998H46.2473C48.4381 84.5998 50.4548 83.4057 51.5082 81.4848L78.6917 31.9148C79.7451 29.9939 81.7618 28.7998 83.9526 28.7998H90.9785C91.8894 28.7998 92.4682 29.7748 92.032 30.5744L60.4111 88.546C58.3083 92.4012 54.2677 94.7998 49.8764 94.7998Z" fill="white"/>
<path d="M42.5361 28.7998H35.6397C34.7247 28.7998 34.1463 29.7829 34.5908 30.5827L53.8935 65.3169C54.3502 66.1387 55.5317 66.1399 55.9901 65.319L59.5689 58.9101C60.5828 57.0944 60.5843 54.8832 59.5727 53.0662L47.7784 31.8813C46.7194 29.9791 44.7132 28.7998 42.5361 28.7998Z" fill="#B3BFCC"/>
<path d="M172.251 96C167.149 96 162.611 94.9389 158.636 92.8166C154.721 90.6944 151.636 87.7763 149.381 84.0624C147.127 80.3485 146 76.1335 146 71.4174V29.0611H158.102V70.7984C158.102 73.5102 158.695 75.9567 159.882 78.1378C161.128 80.319 162.818 82.0286 164.954 83.2666C167.09 84.4456 169.522 85.0351 172.251 85.0351C175.039 85.0351 177.472 84.4456 179.548 83.2666C181.684 82.0286 183.345 80.319 184.531 78.1378C185.777 75.9567 186.4 73.5102 186.4 70.7984V29.0611H198.502V71.4174C198.502 76.1335 197.375 80.3485 195.121 84.0624C192.866 87.7763 189.752 90.6944 185.777 92.8166C181.862 94.9389 177.353 96 172.251 96Z" fill="#002855"/>
<path d="M232.475 96C228.263 96 224.347 95.2336 220.729 93.7009C217.169 92.1682 214.084 90.0459 211.474 87.3342C208.923 84.5635 207.054 81.3507 205.868 77.6957L215.923 73.3628C217.525 77.1357 219.839 80.1127 222.864 82.2939C225.89 84.4161 229.301 85.4772 233.098 85.4772C235.233 85.4772 237.073 85.153 238.615 84.5045C240.217 83.7971 241.433 82.8539 242.263 81.6749C243.153 80.4959 243.598 79.0811 243.598 77.4304C243.598 75.485 243.005 73.8934 241.819 72.6554C240.691 71.3585 238.971 70.3563 236.657 69.6489L223.932 65.5813C218.771 63.9896 214.885 61.6021 212.275 58.4187C209.665 55.2354 208.36 51.492 208.36 47.1886C208.36 43.4157 209.279 40.085 211.118 37.1964C213.016 34.3078 215.627 32.0676 218.949 30.4759C222.33 28.8253 226.187 28 230.517 28C234.492 28 238.14 28.7074 241.463 30.1222C244.785 31.4781 247.632 33.394 250.005 35.87C252.438 38.287 254.247 41.1461 255.433 44.4473L245.467 48.8687C244.162 45.5674 242.204 43.0325 239.594 41.264C236.984 39.4365 233.958 38.5228 230.517 38.5228C228.5 38.5228 226.72 38.8765 225.178 39.5839C223.636 40.2323 222.419 41.1756 221.53 42.4135C220.699 43.5925 220.284 45.0074 220.284 46.658C220.284 48.4855 220.877 50.1066 222.063 51.5215C223.25 52.8773 225.059 53.9384 227.492 54.7048L239.683 58.5071C244.963 60.2167 248.908 62.5748 251.518 65.5813C254.188 68.5878 255.522 72.3017 255.522 76.723C255.522 80.4959 254.544 83.8266 252.586 86.7152C250.628 89.6038 247.929 91.8734 244.488 93.5241C241.047 95.1747 237.043 96 232.475 96Z" fill="#002855"/>
<path d="M279.549 94.9389V65.7581L257.213 29.0611H271.006L288.092 57.7113H283.197L300.194 29.0611H313.987L291.74 65.6697V94.9389H279.549Z" fill="#002855"/>
<path d="M348.058 96C343.312 96 338.922 95.1452 334.888 93.4356C330.913 91.726 327.413 89.3385 324.388 86.2731C321.421 83.2076 319.108 79.6116 317.447 75.485C315.786 71.3585 314.955 66.8487 314.955 61.9558C314.955 57.0628 315.756 52.5531 317.358 48.4265C319.019 44.241 321.332 40.645 324.299 37.6385C327.324 34.573 330.854 32.215 334.888 30.5644C338.922 28.8548 343.312 28 348.058 28C352.804 28 357.046 28.7958 360.783 30.3875C364.58 31.9792 367.784 34.1014 370.394 36.7542C373.004 39.3481 374.873 42.2072 376 45.3316L365.144 50.3719C363.898 47.0707 361.792 44.3589 358.826 42.2367C355.859 40.0555 352.27 38.9649 348.058 38.9649C343.905 38.9649 340.227 39.9376 337.024 41.883C333.88 43.8283 331.418 46.5106 329.638 49.9298C327.918 53.3489 327.057 57.3576 327.057 61.9558C327.057 66.554 327.918 70.5921 329.638 74.0702C331.418 77.4894 333.88 80.1717 337.024 82.117C340.227 84.0624 343.905 85.0351 348.058 85.0351C352.27 85.0351 355.859 83.974 358.826 81.8518C361.792 79.6706 363.898 76.9293 365.144 73.6281L376 78.6684C374.873 81.7928 373.004 84.6814 370.394 87.3342C367.784 89.928 364.58 92.0208 360.783 93.6125C357.046 95.2042 352.804 96 348.058 96Z" fill="#002855"/>
</svg>
