<svg width="120" height="120" viewBox="0 0 120 120" fill="none" xmlns="http://www.w3.org/2000/svg">
<path d="M120 60C120 93.1371 93.1371 120 60 120C26.8629 120 0 93.1371 0 60C0 26.8629 26.8629 0 60 0C93.1371 0 120 26.8629 120 60Z" fill="#002855"/>
<path d="M56.8684 35.1867C56.8684 38.0751 55.5423 40.6539 53.4657 42.3473H53.5678C53.5678 42.3473 51.749 44.124 51.749 47.7189C51.749 51.3138 53.5678 53.0905 53.5678 53.0905H53.5452C54.0165 53.4836 54.448 53.9228 54.8328 54.4012V54.1548C54.8328 54.1548 56.6095 56.1108 60.2044 56.1108C62.5598 56.1108 64.1346 55.2711 64.9406 54.6921C66.6231 52.422 69.3221 50.9506 72.3647 50.9506C77.465 50.9506 81.5997 55.0853 81.5997 60.1856C81.5997 63.1397 80.2127 65.7698 78.0544 67.4602C77.5561 68.0962 76.4849 69.7842 76.4849 72.543C76.4849 75.0476 77.3678 76.6697 77.9034 77.4232C80.1478 79.1079 81.5997 81.7912 81.5997 84.8136C81.5997 89.9139 77.465 94.0486 72.3647 94.0486C67.2643 94.0486 63.1297 89.9139 63.1297 84.8136C63.1297 82.0091 64.3798 79.4966 66.3532 77.8029C66.7672 77.3625 68.1982 75.6178 68.1982 72.543C68.1982 68.9481 66.2422 67.1714 66.2422 67.1714H66.3243C65.8343 66.7474 65.3894 66.2726 64.9977 65.7554C64.2103 65.2166 62.6167 64.3975 60.2044 64.3975C56.6095 64.3975 54.8328 66.2164 54.8328 66.2164V65.9701C54.3851 66.5265 53.8743 67.03 53.3111 67.4696C52.8097 68.1127 51.749 69.7977 51.749 72.543C51.749 75.0362 52.6239 76.6549 53.1601 77.4129C55.4113 79.097 56.8684 81.7845 56.8684 84.8123C56.8684 89.9126 52.7338 94.0472 47.6334 94.0472C42.5331 94.0472 38.3984 89.9126 38.3984 84.8122C38.3984 82.0165 39.6408 79.5109 41.6035 77.8174C41.9985 77.402 43.4622 75.6528 43.4622 72.543C43.4622 68.9481 41.5063 67.1714 41.5063 67.1714H41.593C39.6363 65.478 38.3984 62.9764 38.3984 60.1856C38.3984 57.3342 39.6908 54.7845 41.7217 53.0905H41.5063C41.5063 53.0905 43.4622 51.3138 43.4622 47.7189C43.4622 44.124 41.5063 42.3473 41.5063 42.3473H41.8012C39.7246 40.6539 38.3984 38.0751 38.3984 35.1866C38.3984 30.0863 42.5331 25.9517 47.6334 25.9517C52.7338 25.9517 56.8684 30.0863 56.8684 35.1867Z" fill="white"/>
<path d="M72.3647 44.5462C77.465 44.5462 81.5997 40.4115 81.5997 35.3112C81.5997 30.2109 77.465 26.0762 72.3647 26.0762C67.2643 26.0762 63.1297 30.2109 63.1297 35.3112C63.1297 40.4115 67.2643 44.5462 72.3647 44.5462Z" fill="white"/>
</svg>
