<svg width="1275" height="120" viewBox="0 0 1275 120" fill="none" xmlns="http://www.w3.org/2000/svg">
<path d="M120 60C120 93.1371 93.1371 120 60 120C26.8629 120 0 93.1371 0 60C0 26.8629 26.8629 0 60 0C93.1371 0 120 26.8629 120 60Z" fill="#002855"/>
<path d="M56.87 35.1867C56.87 38.0751 55.5439 40.6539 53.4673 42.3473H53.5694C53.5694 42.3473 51.7506 44.124 51.7506 47.7189C51.7506 51.3138 53.5694 53.0905 53.5694 53.0905H53.5468C54.0181 53.4836 54.4496 53.9228 54.8344 54.4012V54.1548C54.8344 54.1548 56.6111 56.1108 60.206 56.1108C62.5614 56.1108 64.1362 55.2711 64.9422 54.6921C66.6247 52.422 69.3237 50.9506 72.3663 50.9506C77.4666 50.9506 81.6013 55.0853 81.6013 60.1856C81.6013 63.1397 80.2143 65.7698 78.056 67.4602C77.5577 68.0962 76.4865 69.7842 76.4865 72.543C76.4865 75.0476 77.3694 76.6697 77.905 77.4232C80.1493 79.1079 81.6013 81.7912 81.6013 84.8136C81.6013 89.9139 77.4666 94.0486 72.3663 94.0486C67.2659 94.0486 63.1313 89.9139 63.1313 84.8136C63.1313 82.0091 64.3814 79.4966 66.3547 77.8029C66.7688 77.3625 68.1997 75.6178 68.1997 72.543C68.1997 68.9481 66.2438 67.1714 66.2438 67.1714H66.3258C65.8359 66.7474 65.391 66.2726 64.9993 65.7554C64.2119 65.2166 62.6183 64.3975 60.206 64.3975C56.6111 64.3975 54.8344 66.2164 54.8344 66.2164V65.9701C54.3867 66.5265 53.8758 67.03 53.3127 67.4696C52.8113 68.1127 51.7506 69.7977 51.7506 72.543C51.7506 75.0362 52.6255 76.6549 53.1617 77.4129C55.4129 79.097 56.87 81.7845 56.87 84.8123C56.87 89.9126 52.7354 94.0472 47.635 94.0472C42.5347 94.0472 38.4 89.9126 38.4 84.8122C38.4 82.0165 39.6423 79.5109 41.6051 77.8174C42.0001 77.402 43.4638 75.6528 43.4638 72.543C43.4638 68.9481 41.5078 67.1714 41.5078 67.1714H41.5946C39.6379 65.478 38.4 62.9764 38.4 60.1856C38.4 57.3342 39.6924 54.7845 41.7233 53.0905H41.5078C41.5078 53.0905 43.4638 51.3138 43.4638 47.7189C43.4638 44.124 41.5078 42.3473 41.5078 42.3473H41.8028C39.7261 40.6539 38.4 38.0751 38.4 35.1866C38.4 30.0863 42.5347 25.9517 47.635 25.9517C52.7354 25.9517 56.87 30.0863 56.87 35.1867Z" fill="white"/>
<path d="M72.3663 44.5462C77.4666 44.5462 81.6013 40.4115 81.6013 35.3112C81.6013 30.2109 77.4666 26.0762 72.3663 26.0762C67.2659 26.0762 63.1313 30.2109 63.1313 35.3112C63.1313 40.4115 67.2659 44.5462 72.3663 44.5462Z" fill="white"/>
<path d="M1261.95 84.7201C1258.47 84.7201 1255.43 83.9001 1252.83 82.2601C1250.27 80.5801 1248.51 78.3201 1247.55 75.4801L1253.43 72.6601C1254.27 74.5001 1255.43 75.9401 1256.91 76.9801C1258.43 78.0201 1260.11 78.5401 1261.95 78.5401C1263.39 78.5401 1264.53 78.2201 1265.37 77.5801C1266.21 76.9401 1266.63 76.1001 1266.63 75.0601C1266.63 74.4201 1266.45 73.9001 1266.09 73.5001C1265.77 73.0601 1265.31 72.7001 1264.71 72.4201C1264.15 72.1001 1263.53 71.8401 1262.85 71.6401L1257.51 70.1401C1254.75 69.3401 1252.65 68.1201 1251.21 66.4801C1249.81 64.8401 1249.11 62.9001 1249.11 60.6601C1249.11 58.6601 1249.61 56.9201 1250.61 55.4401C1251.65 53.9201 1253.07 52.7401 1254.87 51.9001C1256.71 51.0601 1258.81 50.6401 1261.17 50.6401C1264.25 50.6401 1266.97 51.3801 1269.33 52.8601C1271.69 54.3401 1273.37 56.4201 1274.37 59.1001L1268.37 61.9201C1267.81 60.4401 1266.87 59.2601 1265.55 58.3801C1264.23 57.5001 1262.75 57.0601 1261.11 57.0601C1259.79 57.0601 1258.75 57.3601 1257.99 57.9601C1257.23 58.5601 1256.85 59.3401 1256.85 60.3001C1256.85 60.9001 1257.01 61.4201 1257.33 61.8601C1257.65 62.3001 1258.09 62.6601 1258.65 62.9401C1259.25 63.2201 1259.93 63.4801 1260.69 63.7201L1265.91 65.2801C1268.59 66.0801 1270.65 67.2801 1272.09 68.8801C1273.57 70.4801 1274.31 72.4401 1274.31 74.7601C1274.31 76.7201 1273.79 78.4601 1272.75 79.9801C1271.71 81.4601 1270.27 82.6201 1268.43 83.4601C1266.59 84.3001 1264.43 84.7201 1261.95 84.7201Z" fill="#002855"/>
<path d="M1229.47 84.7201C1226.11 84.7201 1223.17 83.9601 1220.65 82.4401C1218.13 80.9201 1216.17 78.8601 1214.77 76.2601C1213.37 73.6601 1212.67 70.7801 1212.67 67.6201C1212.67 64.3401 1213.37 61.4401 1214.77 58.9201C1216.21 56.3601 1218.15 54.3401 1220.59 52.8601C1223.07 51.3801 1225.83 50.6401 1228.87 50.6401C1231.43 50.6401 1233.67 51.0601 1235.59 51.9001C1237.55 52.7401 1239.21 53.9001 1240.57 55.3801C1241.93 56.8601 1242.97 58.5601 1243.69 60.4801C1244.41 62.3601 1244.77 64.4001 1244.77 66.6001C1244.77 67.1601 1244.73 67.7401 1244.65 68.3401C1244.61 68.9401 1244.51 69.4601 1244.35 69.9001H1219.15V63.9001H1239.91L1236.19 66.7201C1236.55 64.8801 1236.45 63.2401 1235.89 61.8001C1235.37 60.3601 1234.49 59.2201 1233.25 58.3801C1232.05 57.5401 1230.59 57.1201 1228.87 57.1201C1227.23 57.1201 1225.77 57.5401 1224.49 58.3801C1223.21 59.1801 1222.23 60.3801 1221.55 61.9801C1220.91 63.5401 1220.67 65.4401 1220.83 67.6801C1220.67 69.6801 1220.93 71.4601 1221.61 73.0201C1222.33 74.5401 1223.37 75.7201 1224.73 76.5601C1226.13 77.4001 1227.73 77.8201 1229.53 77.8201C1231.33 77.8201 1232.85 77.4401 1234.09 76.6801C1235.37 75.9201 1236.37 74.9001 1237.09 73.6201L1243.45 76.7401C1242.81 78.3001 1241.81 79.6801 1240.45 80.8801C1239.09 82.0801 1237.47 83.0201 1235.59 83.7001C1233.75 84.3801 1231.71 84.7201 1229.47 84.7201Z" fill="#002855"/>
<path d="M1200.07 84.0001V51.3601H1207.93V84.0001H1200.07ZM1200.07 47.7001V39.3001H1207.93V47.7001H1200.07Z" fill="#002855"/>
<path d="M1178.83 84.0001V51.3601H1186.21V58.6201L1185.61 57.5401C1186.37 55.1001 1187.55 53.4001 1189.15 52.4401C1190.79 51.4801 1192.75 51.0001 1195.03 51.0001H1196.95V57.9601H1194.13C1191.89 57.9601 1190.09 58.6601 1188.73 60.0601C1187.37 61.4201 1186.69 63.3401 1186.69 65.8201V84.0001H1178.83Z" fill="#002855"/>
<path d="M1158.77 84.7201C1155.41 84.7201 1152.47 83.9601 1149.95 82.4401C1147.43 80.9201 1145.47 78.8601 1144.07 76.2601C1142.67 73.6601 1141.97 70.7801 1141.97 67.6201C1141.97 64.3401 1142.67 61.4401 1144.07 58.9201C1145.51 56.3601 1147.45 54.3401 1149.89 52.8601C1152.37 51.3801 1155.13 50.6401 1158.17 50.6401C1160.73 50.6401 1162.97 51.0601 1164.89 51.9001C1166.85 52.7401 1168.51 53.9001 1169.87 55.3801C1171.23 56.8601 1172.27 58.5601 1172.99 60.4801C1173.71 62.3601 1174.07 64.4001 1174.07 66.6001C1174.07 67.1601 1174.03 67.7401 1173.95 68.3401C1173.91 68.9401 1173.81 69.4601 1173.65 69.9001H1148.45V63.9001H1169.21L1165.49 66.7201C1165.85 64.8801 1165.75 63.2401 1165.19 61.8001C1164.67 60.3601 1163.79 59.2201 1162.55 58.3801C1161.35 57.5401 1159.89 57.1201 1158.17 57.1201C1156.53 57.1201 1155.07 57.5401 1153.79 58.3801C1152.51 59.1801 1151.53 60.3801 1150.85 61.9801C1150.21 63.5401 1149.97 65.4401 1150.13 67.6801C1149.97 69.6801 1150.23 71.4601 1150.91 73.0201C1151.63 74.5401 1152.67 75.7201 1154.03 76.5601C1155.43 77.4001 1157.03 77.8201 1158.83 77.8201C1160.63 77.8201 1162.15 77.4401 1163.39 76.6801C1164.67 75.9201 1165.67 74.9001 1166.39 73.6201L1172.75 76.7401C1172.11 78.3001 1171.11 79.6801 1169.75 80.8801C1168.39 82.0801 1166.77 83.0201 1164.89 83.7001C1163.05 84.3801 1161.01 84.7201 1158.77 84.7201Z" fill="#002855"/>
<path d="M1122.27 84.7201C1119.43 84.7201 1116.79 84.2001 1114.35 83.1601C1111.95 82.1201 1109.87 80.6801 1108.11 78.8401C1106.39 76.9601 1105.13 74.7801 1104.33 72.3001L1111.11 69.3601C1112.19 71.9201 1113.75 73.9401 1115.79 75.4201C1117.83 76.8601 1120.13 77.5801 1122.69 77.5801C1124.13 77.5801 1125.37 77.3601 1126.41 76.9201C1127.49 76.4401 1128.31 75.8001 1128.87 75.0001C1129.47 74.2001 1129.77 73.2401 1129.77 72.1201C1129.77 70.8001 1129.37 69.7201 1128.57 68.8801C1127.81 68.0001 1126.65 67.3201 1125.09 66.8401L1116.51 64.0801C1113.03 63.0001 1110.41 61.3801 1108.65 59.2201C1106.89 57.0601 1106.01 54.5201 1106.01 51.6001C1106.01 49.0401 1106.63 46.7801 1107.87 44.8201C1109.15 42.8601 1110.91 41.3401 1113.15 40.2601C1115.43 39.1401 1118.03 38.5801 1120.95 38.5801C1123.63 38.5801 1126.09 39.0601 1128.33 40.0201C1130.57 40.9401 1132.49 42.2401 1134.09 43.9201C1135.73 45.5601 1136.95 47.5001 1137.75 49.7401L1131.03 52.7401C1130.15 50.5001 1128.83 48.7801 1127.07 47.5801C1125.31 46.3401 1123.27 45.7201 1120.95 45.7201C1119.59 45.7201 1118.39 45.9601 1117.35 46.4401C1116.31 46.8801 1115.49 47.5201 1114.89 48.3601C1114.33 49.1601 1114.05 50.1201 1114.05 51.2401C1114.05 52.4801 1114.45 53.5801 1115.25 54.5401C1116.05 55.4601 1117.27 56.1801 1118.91 56.7001L1127.13 59.2801C1130.69 60.4401 1133.35 62.0401 1135.11 64.0801C1136.91 66.1201 1137.81 68.6401 1137.81 71.6401C1137.81 74.2001 1137.15 76.4601 1135.83 78.4201C1134.51 80.3801 1132.69 81.9201 1130.37 83.0401C1128.05 84.1601 1125.35 84.7201 1122.27 84.7201Z" fill="#002855"/>
<path d="M1072.25 84.7201C1069.09 84.7201 1066.27 83.9801 1063.79 82.5001C1061.31 80.9801 1059.35 78.9201 1057.91 76.3201C1056.47 73.7201 1055.75 70.8401 1055.75 67.6801C1055.75 64.4801 1056.47 61.6001 1057.91 59.0401C1059.35 56.4801 1061.31 54.4401 1063.79 52.9201C1066.31 51.4001 1069.11 50.6401 1072.19 50.6401C1074.67 50.6401 1076.87 51.1401 1078.79 52.1401C1080.75 53.1001 1082.29 54.4601 1083.41 56.2201L1082.21 57.8401V38.5801H1090.07V84.0001H1082.63V77.7001L1083.47 79.2601C1082.35 81.0201 1080.79 82.3801 1078.79 83.3401C1076.79 84.2601 1074.61 84.7201 1072.25 84.7201ZM1073.09 77.5201C1074.89 77.5201 1076.47 77.1001 1077.83 76.2601C1079.19 75.4201 1080.25 74.2601 1081.01 72.7801C1081.81 71.3001 1082.21 69.6001 1082.21 67.6801C1082.21 65.8001 1081.81 64.1201 1081.01 62.6401C1080.25 61.1201 1079.19 59.9401 1077.83 59.1001C1076.47 58.2601 1074.89 57.8401 1073.09 57.8401C1071.33 57.8401 1069.75 58.2801 1068.35 59.1601C1066.95 60.0001 1065.85 61.1601 1065.05 62.6401C1064.29 64.0801 1063.91 65.7601 1063.91 67.6801C1063.91 69.6001 1064.29 71.3001 1065.05 72.7801C1065.85 74.2601 1066.95 75.4201 1068.35 76.2601C1069.75 77.1001 1071.33 77.5201 1073.09 77.5201Z" fill="#002855"/>
<path d="M1022.7 84.0001V51.3601H1030.08V57.7801L1029.48 56.6401C1030.24 54.6801 1031.48 53.2001 1033.2 52.2001C1034.96 51.1601 1037 50.6401 1039.32 50.6401C1041.72 50.6401 1043.84 51.1601 1045.68 52.2001C1047.56 53.2401 1049.02 54.7001 1050.06 56.5801C1051.1 58.4201 1051.62 60.5601 1051.62 63.0001V84.0001H1043.76V64.8601C1043.76 63.4201 1043.48 62.1801 1042.92 61.1401C1042.36 60.1001 1041.58 59.3001 1040.58 58.7401C1039.62 58.1401 1038.48 57.8401 1037.16 57.8401C1035.88 57.8401 1034.74 58.1401 1033.74 58.7401C1032.74 59.3001 1031.96 60.1001 1031.4 61.1401C1030.84 62.1801 1030.56 63.4201 1030.56 64.8601V84.0001H1022.7Z" fill="#002855"/>
<path d="M999.978 84.7201C997.458 84.7201 995.258 84.1601 993.378 83.0401C991.538 81.9201 990.118 80.3601 989.118 78.3601C988.158 76.3601 987.678 74.0201 987.678 71.3401V51.3601H995.538V70.6801C995.538 72.0401 995.798 73.2401 996.318 74.2801C996.878 75.2801 997.658 76.0801 998.658 76.6801C999.698 77.2401 1000.86 77.5201 1002.14 77.5201C1003.42 77.5201 1004.56 77.2401 1005.56 76.6801C1006.56 76.0801 1007.34 75.2601 1007.9 74.2201C1008.46 73.1801 1008.74 71.9401 1008.74 70.5001V51.3601H1016.6V84.0001H1009.16V77.5801L1009.82 78.7201C1009.06 80.7201 1007.8 82.2201 1006.04 83.2201C1004.32 84.2201 1002.3 84.7201 999.978 84.7201Z" fill="#002855"/>
<path d="M955.627 84.0001V39.3001H985.447V46.5001H963.787V58.8601H982.747V66.0601H963.787V84.0001H955.627Z" fill="#002855"/>
<path d="M910.306 84.0001L921.706 67.6201L910.246 51.3601H919.486L928.426 64.5601H924.286L933.226 51.3601H942.406L931.006 67.6201L942.346 84.0001H933.166L924.346 70.8601H928.366L919.546 84.0001H910.306Z" fill="#002855"/>
<path d="M893.774 84.7201C890.414 84.7201 887.474 83.9601 884.954 82.4401C882.434 80.9201 880.474 78.8601 879.074 76.2601C877.674 73.6601 876.974 70.7801 876.974 67.6201C876.974 64.3401 877.674 61.4401 879.074 58.9201C880.514 56.3601 882.454 54.3401 884.894 52.8601C887.374 51.3801 890.134 50.6401 893.174 50.6401C895.734 50.6401 897.974 51.0601 899.894 51.9001C901.854 52.7401 903.514 53.9001 904.874 55.3801C906.234 56.8601 907.274 58.5601 907.994 60.4801C908.714 62.3601 909.074 64.4001 909.074 66.6001C909.074 67.1601 909.034 67.7401 908.954 68.3401C908.914 68.9401 908.814 69.4601 908.654 69.9001H883.454V63.9001H904.214L900.494 66.7201C900.854 64.8801 900.754 63.2401 900.194 61.8001C899.674 60.3601 898.794 59.2201 897.554 58.3801C896.354 57.5401 894.894 57.1201 893.174 57.1201C891.534 57.1201 890.074 57.5401 888.794 58.3801C887.514 59.1801 886.534 60.3801 885.854 61.9801C885.214 63.5401 884.974 65.4401 885.134 67.6801C884.974 69.6801 885.234 71.4601 885.914 73.0201C886.634 74.5401 887.674 75.7201 889.034 76.5601C890.434 77.4001 892.034 77.8201 893.834 77.8201C895.634 77.8201 897.154 77.4401 898.394 76.6801C899.674 75.9201 900.674 74.9001 901.394 73.6201L907.754 76.7401C907.114 78.3001 906.114 79.6801 904.754 80.8801C903.394 82.0801 901.774 83.0201 899.894 83.7001C898.054 84.3801 896.014 84.7201 893.774 84.7201Z" fill="#002855"/>
<path d="M854.361 84.7201C851.201 84.7201 848.381 83.9801 845.901 82.5001C843.421 80.9801 841.461 78.9201 840.021 76.3201C838.581 73.7201 837.861 70.8401 837.861 67.6801C837.861 64.4801 838.581 61.6001 840.021 59.0401C841.461 56.4801 843.421 54.4401 845.901 52.9201C848.421 51.4001 851.221 50.6401 854.301 50.6401C856.781 50.6401 858.981 51.1401 860.901 52.1401C862.861 53.1001 864.401 54.4601 865.521 56.2201L864.321 57.8401V38.5801H872.181V84.0001H864.741V77.7001L865.581 79.2601C864.461 81.0201 862.901 82.3801 860.901 83.3401C858.901 84.2601 856.721 84.7201 854.361 84.7201ZM855.201 77.5201C857.001 77.5201 858.581 77.1001 859.941 76.2601C861.301 75.4201 862.361 74.2601 863.121 72.7801C863.921 71.3001 864.321 69.6001 864.321 67.6801C864.321 65.8001 863.921 64.1201 863.121 62.6401C862.361 61.1201 861.301 59.9401 859.941 59.1001C858.581 58.2601 857.001 57.8401 855.201 57.8401C853.441 57.8401 851.861 58.2801 850.461 59.1601C849.061 60.0001 847.961 61.1601 847.161 62.6401C846.401 64.0801 846.021 65.7601 846.021 67.6801C846.021 69.6001 846.401 71.3001 847.161 72.7801C847.961 74.2601 849.061 75.4201 850.461 76.2601C851.861 77.1001 853.441 77.5201 855.201 77.5201Z" fill="#002855"/>
<path d="M804.815 84.0001V51.3601H812.195V57.7801L811.595 56.6401C812.355 54.6801 813.595 53.2001 815.315 52.2001C817.075 51.1601 819.115 50.6401 821.435 50.6401C823.835 50.6401 825.955 51.1601 827.795 52.2001C829.675 53.2401 831.135 54.7001 832.175 56.5801C833.215 58.4201 833.735 60.5601 833.735 63.0001V84.0001H825.875V64.8601C825.875 63.4201 825.595 62.1801 825.035 61.1401C824.475 60.1001 823.695 59.3001 822.695 58.7401C821.735 58.1401 820.595 57.8401 819.275 57.8401C817.995 57.8401 816.855 58.1401 815.855 58.7401C814.855 59.3001 814.075 60.1001 813.515 61.1401C812.955 62.1801 812.675 63.4201 812.675 64.8601V84.0001H804.815Z" fill="#002855"/>
<path d="M789.917 84.0001V39.3001H798.077V84.0001H789.917Z" fill="#002855"/>
<path d="M759.357 84.7201C754.157 84.7201 750.157 82.7201 747.357 78.7201C744.557 74.7201 743.157 69.0201 743.157 61.6201C743.157 54.2201 744.537 48.5401 747.297 44.5801C750.097 40.5801 754.117 38.5801 759.357 38.5801C764.557 38.5801 768.557 40.5801 771.357 44.5801C774.157 48.5401 775.557 54.2201 775.557 61.6201C775.557 69.0201 774.157 74.7201 771.357 78.7201C768.557 82.7201 764.557 84.7201 759.357 84.7201ZM759.357 77.2801C762.117 77.2801 764.157 75.9801 765.477 73.3801C766.837 70.7401 767.517 66.8201 767.517 61.6201C767.517 56.4201 766.837 52.5201 765.477 49.9201C764.117 47.3201 762.057 46.0201 759.297 46.0201C756.617 46.0201 754.597 47.3201 753.237 49.9201C751.877 52.5201 751.197 56.4201 751.197 61.6201C751.197 66.8201 751.877 70.7401 753.237 73.3801C754.637 75.9801 756.677 77.2801 759.357 77.2801Z" fill="#002855"/>
<path d="M709.76 84.0001V77.8201L721.58 65.1601C723.9 62.6401 725.68 60.6201 726.92 59.1001C728.2 57.5801 729.08 56.3001 729.56 55.2601C730.08 54.1801 730.34 53.0801 730.34 51.9601C730.34 50.0801 729.76 48.6001 728.6 47.5201C727.48 46.4401 726.04 45.9001 724.28 45.9001C722.52 45.9001 720.94 46.4601 719.54 47.5801C718.18 48.6601 717.2 50.2601 716.6 52.3801L709.4 50.1601C709.92 47.8001 710.9 45.7601 712.34 44.0401C713.78 42.2801 715.52 40.9401 717.56 40.0201C719.64 39.0601 721.88 38.5801 724.28 38.5801C727.12 38.5801 729.6 39.1001 731.72 40.1401C733.84 41.1801 735.5 42.6401 736.7 44.5201C737.9 46.4001 738.5 48.6001 738.5 51.1201C738.5 52.7601 738.2 54.3601 737.6 55.9201C737.04 57.4401 736.18 59.0201 735.02 60.6601C733.86 62.3001 732.38 64.1001 730.58 66.0601L720.38 77.1001H739.1V84.0001H709.76Z" fill="#002855"/>
<path d="M667.347 84.0001V38.5801H675.207V68.3401L672.207 67.4401L687.567 51.3601H697.347L685.287 64.5001L697.587 84.0001H688.587L677.907 67.0801L682.587 66.1201L672.747 76.6801L675.207 71.8801V84.0001H667.347Z" fill="#002855"/>
<path d="M650.147 84.7201C646.667 84.7201 643.627 83.9001 641.027 82.2601C638.467 80.5801 636.707 78.3201 635.747 75.4801L641.627 72.6601C642.467 74.5001 643.627 75.9401 645.107 76.9801C646.627 78.0201 648.307 78.5401 650.147 78.5401C651.587 78.5401 652.727 78.2201 653.567 77.5801C654.407 76.9401 654.827 76.1001 654.827 75.0601C654.827 74.4201 654.647 73.9001 654.287 73.5001C653.967 73.0601 653.507 72.7001 652.907 72.4201C652.347 72.1001 651.727 71.8401 651.047 71.6401L645.707 70.1401C642.947 69.3401 640.847 68.1201 639.407 66.4801C638.007 64.8401 637.307 62.9001 637.307 60.6601C637.307 58.6601 637.807 56.9201 638.807 55.4401C639.847 53.9201 641.267 52.7401 643.067 51.9001C644.907 51.0601 647.007 50.6401 649.367 50.6401C652.447 50.6401 655.167 51.3801 657.527 52.8601C659.887 54.3401 661.567 56.4201 662.567 59.1001L656.567 61.9201C656.007 60.4401 655.067 59.2601 653.747 58.3801C652.427 57.5001 650.947 57.0601 649.307 57.0601C647.987 57.0601 646.947 57.3601 646.187 57.9601C645.427 58.5601 645.047 59.3401 645.047 60.3001C645.047 60.9001 645.207 61.4201 645.527 61.8601C645.847 62.3001 646.287 62.6601 646.847 62.9401C647.447 63.2201 648.127 63.4801 648.887 63.7201L654.107 65.2801C656.787 66.0801 658.847 67.2801 660.287 68.8801C661.767 70.4801 662.507 72.4401 662.507 74.7601C662.507 76.7201 661.987 78.4601 660.947 79.9801C659.907 81.4601 658.467 82.6201 656.627 83.4601C654.787 84.3001 652.627 84.7201 650.147 84.7201Z" fill="#002855"/>
<path d="M617.668 84.7201C614.308 84.7201 611.368 83.9601 608.848 82.4401C606.328 80.9201 604.368 78.8601 602.968 76.2601C601.568 73.6601 600.868 70.7801 600.868 67.6201C600.868 64.3401 601.568 61.4401 602.968 58.9201C604.408 56.3601 606.348 54.3401 608.788 52.8601C611.268 51.3801 614.028 50.6401 617.068 50.6401C619.628 50.6401 621.868 51.0601 623.788 51.9001C625.748 52.7401 627.408 53.9001 628.768 55.3801C630.128 56.8601 631.168 58.5601 631.888 60.4801C632.608 62.3601 632.968 64.4001 632.968 66.6001C632.968 67.1601 632.928 67.7401 632.848 68.3401C632.808 68.9401 632.708 69.4601 632.548 69.9001H607.348V63.9001H628.108L624.388 66.7201C624.748 64.8801 624.648 63.2401 624.088 61.8001C623.568 60.3601 622.688 59.2201 621.448 58.3801C620.248 57.5401 618.788 57.1201 617.068 57.1201C615.428 57.1201 613.968 57.5401 612.688 58.3801C611.408 59.1801 610.428 60.3801 609.748 61.9801C609.108 63.5401 608.868 65.4401 609.028 67.6801C608.868 69.6801 609.128 71.4601 609.808 73.0201C610.528 74.5401 611.568 75.7201 612.928 76.5601C614.328 77.4001 615.928 77.8201 617.728 77.8201C619.528 77.8201 621.048 77.4401 622.288 76.6801C623.568 75.9201 624.568 74.9001 625.288 73.6201L631.648 76.7401C631.008 78.3001 630.008 79.6801 628.648 80.8801C627.288 82.0801 625.668 83.0201 623.788 83.7001C621.948 84.3801 619.908 84.7201 617.668 84.7201Z" fill="#002855"/>
<path d="M559.634 84.0001V39.3001H574.214C578.934 39.3001 583.034 40.2601 586.514 42.1801C590.034 44.0601 592.754 46.6801 594.674 50.0401C596.594 53.3601 597.554 57.2201 597.554 61.6201C597.554 65.9801 596.594 69.8601 594.674 73.2601C592.754 76.6201 590.034 79.2601 586.514 81.1801C583.034 83.0601 578.934 84.0001 574.214 84.0001H559.634ZM567.794 76.8001H574.394C577.434 76.8001 580.054 76.1801 582.254 74.9401C584.494 73.6601 586.234 71.9001 587.474 69.6601C588.714 67.3801 589.334 64.7001 589.334 61.6201C589.334 58.5001 588.714 55.8201 587.474 53.5801C586.234 51.3401 584.494 49.6001 582.254 48.3601C580.054 47.1201 577.434 46.5001 574.394 46.5001H567.794V76.8001Z" fill="#002855"/>
<path d="M524.608 84.0001V51.3601H531.988V57.7801L531.388 56.6401C532.148 54.6801 533.388 53.2001 535.108 52.2001C536.868 51.1601 538.908 50.6401 541.228 50.6401C543.628 50.6401 545.748 51.1601 547.588 52.2001C549.468 53.2401 550.928 54.7001 551.968 56.5801C553.008 58.4201 553.528 60.5601 553.528 63.0001V84.0001H545.668V64.8601C545.668 63.4201 545.388 62.1801 544.828 61.1401C544.268 60.1001 543.488 59.3001 542.488 58.7401C541.528 58.1401 540.388 57.8401 539.068 57.8401C537.788 57.8401 536.648 58.1401 535.648 58.7401C534.648 59.3001 533.868 60.1001 533.308 61.1401C532.748 62.1801 532.468 63.4201 532.468 64.8601V84.0001H524.608Z" fill="#002855"/>
<path d="M510.691 84.0001V51.3601H518.551V84.0001H510.691ZM510.691 47.7001V39.3001H518.551V47.7001H510.691Z" fill="#002855"/>
<path d="M488.71 84.7201C485.51 84.7201 482.59 83.9801 479.95 82.5001C477.35 81.0201 475.27 79.0001 473.71 76.4401C472.19 73.8801 471.43 70.9601 471.43 67.6801C471.43 64.4001 472.19 61.4801 473.71 58.9201C475.27 56.3601 477.35 54.3401 479.95 52.8601C482.55 51.3801 485.47 50.6401 488.71 50.6401C491.91 50.6401 494.81 51.3801 497.41 52.8601C500.01 54.3401 502.07 56.3601 503.59 58.9201C505.15 61.4401 505.93 64.3601 505.93 67.6801C505.93 70.9601 505.15 73.8801 503.59 76.4401C502.03 79.0001 499.95 81.0201 497.35 82.5001C494.75 83.9801 491.87 84.7201 488.71 84.7201ZM488.71 77.5201C490.47 77.5201 492.01 77.1001 493.33 76.2601C494.69 75.4201 495.75 74.2601 496.51 72.7801C497.31 71.2601 497.71 69.5601 497.71 67.6801C497.71 65.7601 497.31 64.0801 496.51 62.6401C495.75 61.1601 494.69 60.0001 493.33 59.1601C492.01 58.2801 490.47 57.8401 488.71 57.8401C486.91 57.8401 485.33 58.2801 483.97 59.1601C482.61 60.0001 481.53 61.1601 480.73 62.6401C479.97 64.0801 479.59 65.7601 479.59 67.6801C479.59 69.5601 479.97 71.2601 480.73 72.7801C481.53 74.2601 482.61 75.4201 483.97 76.2601C485.33 77.1001 486.91 77.5201 488.71 77.5201Z" fill="#002855"/>
<path d="M449.731 84.7201C446.531 84.7201 443.571 84.1401 440.851 82.9801C438.171 81.8201 435.811 80.2001 433.771 78.1201C431.771 76.0401 430.211 73.6001 429.091 70.8001C427.971 68.0001 427.411 64.9401 427.411 61.6201C427.411 58.3001 427.951 55.2401 429.031 52.4401C430.151 49.6001 431.711 47.1601 433.711 45.1201C435.751 43.0401 438.131 41.4401 440.851 40.3201C443.571 39.1601 446.531 38.5801 449.731 38.5801C452.931 38.5801 455.791 39.1201 458.311 40.2001C460.871 41.2801 463.031 42.7201 464.791 44.5201C466.551 46.2801 467.811 48.2201 468.571 50.3401L461.251 53.7601C460.411 51.5201 458.991 49.6801 456.991 48.2401C454.991 46.7601 452.571 46.0201 449.731 46.0201C446.931 46.0201 444.451 46.6801 442.291 48.0001C440.171 49.3201 438.511 51.1401 437.311 53.4601C436.151 55.7801 435.571 58.5001 435.571 61.6201C435.571 64.7401 436.151 67.4801 437.311 69.8401C438.511 72.1601 440.171 73.9801 442.291 75.3001C444.451 76.6201 446.931 77.2801 449.731 77.2801C452.571 77.2801 454.991 76.5601 456.991 75.1201C458.991 73.6401 460.411 71.7801 461.251 69.5401L468.571 72.9601C467.811 75.0801 466.551 77.0401 464.791 78.8401C463.031 80.6001 460.871 82.0201 458.311 83.1001C455.791 84.1801 452.931 84.7201 449.731 84.7201Z" fill="#002855"/>
<path d="M398.549 84.7201C395.189 84.7201 392.249 83.9601 389.729 82.4401C387.209 80.9201 385.249 78.8601 383.849 76.2601C382.449 73.6601 381.749 70.7801 381.749 67.6201C381.749 64.3401 382.449 61.4401 383.849 58.9201C385.289 56.3601 387.229 54.3401 389.669 52.8601C392.149 51.3801 394.909 50.6401 397.949 50.6401C400.509 50.6401 402.749 51.0601 404.669 51.9001C406.629 52.7401 408.289 53.9001 409.649 55.3801C411.009 56.8601 412.049 58.5601 412.769 60.4801C413.489 62.3601 413.849 64.4001 413.849 66.6001C413.849 67.1601 413.809 67.7401 413.729 68.3401C413.689 68.9401 413.589 69.4601 413.429 69.9001H388.229V63.9001H408.989L405.269 66.7201C405.629 64.8801 405.529 63.2401 404.969 61.8001C404.449 60.3601 403.569 59.2201 402.329 58.3801C401.129 57.5401 399.669 57.1201 397.949 57.1201C396.309 57.1201 394.849 57.5401 393.569 58.3801C392.289 59.1801 391.309 60.3801 390.629 61.9801C389.989 63.5401 389.749 65.4401 389.909 67.6801C389.749 69.6801 390.009 71.4601 390.689 73.0201C391.409 74.5401 392.449 75.7201 393.809 76.5601C395.209 77.4001 396.809 77.8201 398.609 77.8201C400.409 77.8201 401.929 77.4401 403.169 76.6801C404.449 75.9201 405.449 74.9001 406.169 73.6201L412.529 76.7401C411.889 78.3001 410.889 79.6801 409.529 80.8801C408.169 82.0801 406.549 83.0201 404.669 83.7001C402.829 84.3801 400.789 84.7201 398.549 84.7201Z" fill="#002855"/>
<path d="M374.657 84.3601C370.977 84.3601 368.117 83.3601 366.077 81.3601C364.077 79.3201 363.077 76.4601 363.077 72.7801V58.3801H357.437V51.3601H358.037C359.637 51.3601 360.877 50.9401 361.757 50.1001C362.637 49.2601 363.077 48.0401 363.077 46.4401V43.9201H370.937V51.3601H378.437V58.3801H370.937V72.3601C370.937 73.4401 371.117 74.3601 371.477 75.1201C371.877 75.8801 372.477 76.4601 373.277 76.8601C374.117 77.2601 375.177 77.4601 376.457 77.4601C376.737 77.4601 377.057 77.4401 377.417 77.4001C377.817 77.3601 378.197 77.3201 378.557 77.2801V84.0001C377.997 84.0801 377.357 84.1601 376.637 84.2401C375.917 84.3201 375.257 84.3601 374.657 84.3601Z" fill="#002855"/>
<path d="M338.382 84.7201C335.182 84.7201 332.262 83.9801 329.622 82.5001C327.022 81.0201 324.942 79.0001 323.382 76.4401C321.862 73.8801 321.102 70.9601 321.102 67.6801C321.102 64.4001 321.862 61.4801 323.382 58.9201C324.942 56.3601 327.022 54.3401 329.622 52.8601C332.222 51.3801 335.142 50.6401 338.382 50.6401C341.582 50.6401 344.482 51.3801 347.082 52.8601C349.682 54.3401 351.742 56.3601 353.262 58.9201C354.822 61.4401 355.602 64.3601 355.602 67.6801C355.602 70.9601 354.822 73.8801 353.262 76.4401C351.702 79.0001 349.622 81.0201 347.022 82.5001C344.422 83.9801 341.542 84.7201 338.382 84.7201ZM338.382 77.5201C340.142 77.5201 341.682 77.1001 343.002 76.2601C344.362 75.4201 345.422 74.2601 346.182 72.7801C346.982 71.2601 347.382 69.5601 347.382 67.6801C347.382 65.7601 346.982 64.0801 346.182 62.6401C345.422 61.1601 344.362 60.0001 343.002 59.1601C341.682 58.2801 340.142 57.8401 338.382 57.8401C336.582 57.8401 335.002 58.2801 333.642 59.1601C332.282 60.0001 331.202 61.1601 330.402 62.6401C329.642 64.0801 329.262 65.7601 329.262 67.6801C329.262 69.5601 329.642 71.2601 330.402 72.7801C331.202 74.2601 332.282 75.4201 333.642 76.2601C335.002 77.1001 336.582 77.5201 338.382 77.5201Z" fill="#002855"/>
<path d="M288.056 84.0001V51.3601H295.436V57.7801L294.836 56.6401C295.596 54.6801 296.836 53.2001 298.556 52.2001C300.316 51.1601 302.356 50.6401 304.676 50.6401C307.076 50.6401 309.196 51.1601 311.036 52.2001C312.916 53.2401 314.376 54.7001 315.416 56.5801C316.456 58.4201 316.976 60.5601 316.976 63.0001V84.0001H309.116V64.8601C309.116 63.4201 308.836 62.1801 308.276 61.1401C307.716 60.1001 306.936 59.3001 305.936 58.7401C304.976 58.1401 303.836 57.8401 302.516 57.8401C301.236 57.8401 300.096 58.1401 299.096 58.7401C298.096 59.3001 297.316 60.1001 296.756 61.1401C296.196 62.1801 295.916 63.4201 295.916 64.8601V84.0001H288.056Z" fill="#002855"/>
<path d="M253.689 84.0001V38.5801H261.549V57.7801L260.469 56.6401C261.229 54.6801 262.469 53.2001 264.189 52.2001C265.949 51.1601 267.989 50.6401 270.309 50.6401C272.709 50.6401 274.829 51.1601 276.669 52.2001C278.549 53.2401 280.009 54.7001 281.049 56.5801C282.089 58.4201 282.609 60.5601 282.609 63.0001V84.0001H274.749V64.8601C274.749 63.4201 274.469 62.1801 273.909 61.1401C273.349 60.1001 272.569 59.3001 271.569 58.7401C270.609 58.1401 269.469 57.8401 268.149 57.8401C266.869 57.8401 265.729 58.1401 264.729 58.7401C263.729 59.3001 262.949 60.1001 262.389 61.1401C261.829 62.1801 261.549 63.4201 261.549 64.8601V84.0001H253.689Z" fill="#002855"/>
<path d="M236.489 84.7201C233.009 84.7201 229.969 83.9001 227.369 82.2601C224.809 80.5801 223.049 78.3201 222.089 75.4801L227.969 72.6601C228.809 74.5001 229.969 75.9401 231.449 76.9801C232.969 78.0201 234.649 78.5401 236.489 78.5401C237.929 78.5401 239.069 78.2201 239.909 77.5801C240.749 76.9401 241.169 76.1001 241.169 75.0601C241.169 74.4201 240.989 73.9001 240.629 73.5001C240.309 73.0601 239.849 72.7001 239.249 72.4201C238.689 72.1001 238.069 71.8401 237.389 71.6401L232.049 70.1401C229.289 69.3401 227.189 68.1201 225.749 66.4801C224.349 64.8401 223.649 62.9001 223.649 60.6601C223.649 58.6601 224.149 56.9201 225.149 55.4401C226.189 53.9201 227.609 52.7401 229.409 51.9001C231.249 51.0601 233.349 50.6401 235.709 50.6401C238.789 50.6401 241.509 51.3801 243.869 52.8601C246.229 54.3401 247.909 56.4201 248.909 59.1001L242.909 61.9201C242.349 60.4401 241.409 59.2601 240.089 58.3801C238.769 57.5001 237.289 57.0601 235.649 57.0601C234.329 57.0601 233.289 57.3601 232.529 57.9601C231.769 58.5601 231.389 59.3401 231.389 60.3001C231.389 60.9001 231.549 61.4201 231.869 61.8601C232.189 62.3001 232.629 62.6601 233.189 62.9401C233.789 63.2201 234.469 63.4801 235.229 63.7201L240.449 65.2801C243.129 66.0801 245.189 67.2801 246.629 68.8801C248.109 70.4801 248.849 72.4401 248.849 74.7601C248.849 76.7201 248.329 78.4601 247.289 79.9801C246.249 81.4601 244.809 82.6201 242.969 83.4601C241.129 84.3001 238.969 84.7201 236.489 84.7201Z" fill="#002855"/>
<path d="M200.364 84.7201C198.084 84.7201 196.104 84.3401 194.424 83.5801C192.744 82.8201 191.444 81.7401 190.524 80.3401C189.604 78.9001 189.144 77.2401 189.144 75.3601C189.144 73.5601 189.544 71.9601 190.344 70.5601C191.144 69.1201 192.384 67.9201 194.064 66.9601C195.744 66.0001 197.864 65.3201 200.424 64.9201L211.104 63.1801V69.1801L201.924 70.7401C200.364 71.0201 199.204 71.5201 198.444 72.2401C197.684 72.9601 197.304 73.9001 197.304 75.0601C197.304 76.1801 197.724 77.0801 198.564 77.7601C199.444 78.4001 200.524 78.7201 201.804 78.7201C203.444 78.7201 204.884 78.3801 206.124 77.7001C207.404 76.9801 208.384 76.0001 209.064 74.7601C209.784 73.5201 210.144 72.1601 210.144 70.6801V62.2801C210.144 60.8801 209.584 59.7201 208.464 58.8001C207.384 57.8401 205.944 57.3601 204.144 57.3601C202.464 57.3601 200.964 57.8201 199.644 58.7401C198.364 59.6201 197.424 60.8001 196.824 62.2801L190.404 59.1601C191.044 57.4401 192.044 55.9601 193.404 54.7201C194.804 53.4401 196.444 52.4401 198.324 51.7201C200.204 51.0001 202.244 50.6401 204.444 50.6401C207.124 50.6401 209.484 51.1401 211.524 52.1401C213.564 53.1001 215.144 54.4601 216.264 56.2201C217.424 57.9401 218.004 59.9601 218.004 62.2801V84.0001H210.564V78.4201L212.244 78.3001C211.404 79.7001 210.404 80.8801 209.244 81.8401C208.084 82.7601 206.764 83.4801 205.284 84.0001C203.804 84.4801 202.164 84.7201 200.364 84.7201Z" fill="#002855"/>
<path d="M148.32 84.0001V39.3001H156.48V58.8001H175.5V39.3001H183.72V84.0001H175.5V66.0001H156.48V84.0001H148.32Z" fill="#002855"/>
</svg>
