<svg width="565" height="120" viewBox="0 0 565 120" fill="none" xmlns="http://www.w3.org/2000/svg">
<path fill-rule="evenodd" clip-rule="evenodd" d="M30.9869 74.1887H39.0364L34.9131 95.6204H50.0655L63.6629 24.9431C55.2947 24.9431 47.2291 31.6049 45.648 39.8224L44.138 47.6718H35.8631L34.47 55.248H42.6804L40.494 66.6124H32.38L30.9869 74.1887ZM84.2911 24.9431H69.1389L56.1215 95.7296C64.49 95.7296 72.5009 89.0576 74.0144 80.8271L75.2351 74.1887H83.9971L85.3902 66.6124H76.6284L78.7182 55.248H87.4802L88.8733 47.6718H80.1115L84.2911 24.9431Z" fill="#002855"/>
<path fill-rule="evenodd" clip-rule="evenodd" d="M60 112.584C89.0416 112.584 112.584 89.0416 112.584 60C112.584 30.9584 89.0416 7.41573 60 7.41573C30.9584 7.41573 7.41573 30.9584 7.41573 60C7.41573 89.0416 30.9584 112.584 60 112.584ZM60 120C93.1371 120 120 93.1371 120 60C120 26.8629 93.1371 0 60 0C26.8629 0 0 26.8629 0 60C0 93.1371 26.8629 120 60 120Z" fill="#002855"/>
<path d="M150.604 95.5558V26.0225H165.071V56.0758H192.138V26.0225H206.604V95.5558H192.138V68.6758H165.071V95.5558H150.604Z" fill="#002855"/>
<path d="M230.911 96.6758C227.24 96.6758 224.067 96.0847 221.39 94.9024C218.715 93.7202 216.662 92.0402 215.23 89.8624C213.799 87.6224 213.084 84.978 213.084 81.9291C213.084 79.0669 213.737 76.5469 215.044 74.3691C216.35 72.1291 218.342 70.2624 221.017 68.7691C223.756 67.2758 227.147 66.218 231.191 65.5958L246.778 63.0758V73.3424L233.711 75.6758C231.72 76.0491 230.196 76.7024 229.138 77.6358C228.08 78.5069 227.551 79.7824 227.551 81.4624C227.551 83.018 228.142 84.2313 229.324 85.1024C230.507 85.9735 231.969 86.4091 233.711 86.4091C236.013 86.4091 238.036 85.9113 239.778 84.9158C241.52 83.9202 242.858 82.5824 243.791 80.9024C244.787 79.1602 245.284 77.2624 245.284 75.2091V61.9558C245.284 60.0269 244.507 58.4091 242.951 57.1024C241.458 55.7958 239.404 55.1424 236.791 55.1424C234.302 55.1424 232.093 55.8269 230.164 57.1958C228.298 58.5647 226.929 60.3691 226.058 62.6091L214.857 57.2891C215.853 54.4269 217.439 51.9691 219.617 49.9158C221.795 47.8624 224.409 46.2758 227.458 45.1558C230.507 44.0358 233.836 43.4758 237.444 43.4758C241.738 43.4758 245.533 44.2535 248.831 45.8091C252.129 47.3647 254.68 49.5424 256.484 52.3424C258.351 55.0802 259.284 58.2847 259.284 61.9558V84.3558H264.884V95.5558H246.218V87.3424L249.391 86.7824C247.898 89.0224 246.249 90.8891 244.444 92.3824C242.64 93.8136 240.618 94.8713 238.378 95.5558C236.138 96.3024 233.649 96.6758 230.911 96.6758Z" fill="#002855"/>
<path d="M289.824 96.6758C284.224 96.6758 279.34 95.3691 275.171 92.7558C271.064 90.0802 268.264 86.5024 266.771 82.0224L277.038 77.1691C278.344 79.9069 280.118 82.0535 282.358 83.6091C284.598 85.1647 287.087 85.9424 289.824 85.9424C291.816 85.9424 293.34 85.538 294.398 84.7291C295.456 83.9202 295.984 82.8002 295.984 81.3691C295.984 80.6224 295.798 80.0002 295.424 79.5024C295.051 78.9424 294.491 78.4447 293.744 78.0091C292.998 77.5735 292.064 77.2002 290.944 76.8891L282.264 74.4624C278.096 73.2802 274.891 71.3824 272.651 68.7691C270.411 66.0935 269.291 62.9513 269.291 59.3424C269.291 56.1691 270.1 53.4002 271.718 51.0358C273.336 48.6713 275.607 46.8358 278.531 45.5291C281.456 44.1602 284.816 43.4758 288.611 43.4758C293.589 43.4758 297.944 44.658 301.678 47.0224C305.473 49.3247 308.149 52.5913 309.704 56.8224L299.344 61.6758C298.598 59.5602 297.229 57.8802 295.238 56.6358C293.309 55.3291 291.1 54.6758 288.611 54.6758C286.807 54.6758 285.376 55.0491 284.318 55.7958C283.322 56.5424 282.824 57.5691 282.824 58.8758C282.824 59.5602 283.011 60.1824 283.384 60.7424C283.758 61.3024 284.349 61.8002 285.158 62.2358C286.029 62.6713 287.087 63.0758 288.331 63.4491L296.451 65.8758C300.682 67.1202 303.918 69.018 306.158 71.5691C308.398 74.058 309.518 77.138 309.518 80.8091C309.518 83.9824 308.678 86.7513 306.998 89.1158C305.38 91.4802 303.109 93.3469 300.184 94.7158C297.26 96.0224 293.807 96.6758 289.824 96.6758Z" fill="#002855"/>
<path d="M315.084 95.5558V24.9025H329.084V54.6758L327.404 52.4358C328.587 49.3869 330.484 47.1469 333.098 45.7158C335.773 44.2225 338.884 43.4758 342.431 43.4758C346.289 43.4758 349.649 44.2847 352.511 45.9025C355.436 47.5202 357.707 49.7914 359.324 52.7158C360.942 55.578 361.751 58.938 361.751 62.7958V95.5558H347.751V65.7825C347.751 63.7914 347.347 62.0802 346.538 60.6491C345.791 59.218 344.702 58.098 343.271 57.2891C341.902 56.4802 340.284 56.0758 338.418 56.0758C336.613 56.0758 334.996 56.4802 333.564 57.2891C332.133 58.098 331.013 59.218 330.204 60.6491C329.458 62.0802 329.084 63.7914 329.084 65.7825V95.5558H315.084Z" fill="#002855"/>
<path d="M368.156 95.5558V44.5958H381.222V54.6758L380.476 52.4358C381.658 49.3869 383.556 47.1469 386.169 45.7158C388.844 44.2224 391.956 43.4758 395.502 43.4758C399.36 43.4758 402.72 44.2847 405.582 45.9024C408.507 47.5202 410.778 49.7913 412.396 52.7158C414.013 55.578 414.822 58.938 414.822 62.7958V95.5558H400.822V65.7824C400.822 63.7913 400.418 62.0802 399.609 60.6491C398.862 59.218 397.773 58.098 396.342 57.2891C394.973 56.4802 393.356 56.0758 391.489 56.0758C389.684 56.0758 388.067 56.4802 386.636 57.2891C385.204 58.098 384.084 59.218 383.276 60.6491C382.529 62.0802 382.156 63.7913 382.156 65.7824V95.5558H368.156Z" fill="#002855"/>
<path d="M446.522 96.6758C441.482 96.6758 436.878 95.5247 432.709 93.2224C428.602 90.9202 425.304 87.778 422.816 83.7958C420.389 79.7513 419.176 75.178 419.176 70.0758C419.176 64.9113 420.389 60.338 422.816 56.3558C425.304 52.3735 428.602 49.2313 432.709 46.9291C436.878 44.6269 441.482 43.4758 446.522 43.4758C451.562 43.4758 456.136 44.6269 460.242 46.9291C464.349 49.2313 467.616 52.3735 470.042 56.3558C472.531 60.338 473.776 64.9113 473.776 70.0758C473.776 75.178 472.531 79.7513 470.042 83.7958C467.616 87.778 464.349 90.9202 460.242 93.2224C456.136 95.5247 451.562 96.6758 446.522 96.6758ZM446.522 84.0758C449.073 84.0758 451.282 83.4847 453.149 82.3024C455.078 81.1202 456.571 79.4713 457.629 77.3558C458.749 75.2402 459.309 72.8135 459.309 70.0758C459.309 67.338 458.749 64.9424 457.629 62.8891C456.571 60.7735 455.078 59.1247 453.149 57.9424C451.282 56.698 449.073 56.0758 446.522 56.0758C443.971 56.0758 441.731 56.698 439.802 57.9424C437.873 59.1247 436.349 60.7735 435.229 62.8891C434.171 64.9424 433.642 67.338 433.642 70.0758C433.642 72.8135 434.171 75.2402 435.229 77.3558C436.349 79.4713 437.873 81.1202 439.802 82.3024C441.731 83.4847 443.971 84.0758 446.522 84.0758Z" fill="#002855"/>
<path d="M502.858 96.1158C496.698 96.1158 491.907 94.4669 488.484 91.1691C485.124 87.8091 483.444 83.1425 483.444 77.1691V56.7291H474.858V44.5958H475.324C477.938 44.5958 479.929 43.9425 481.298 42.6358C482.729 41.3291 483.444 39.3691 483.444 36.7558V33.0225H497.444V44.5958H509.391V56.7291H497.444V76.2358C497.444 77.978 497.756 79.4402 498.378 80.6225C499 81.7425 499.964 82.5825 501.271 83.1425C502.578 83.7025 504.196 83.9825 506.124 83.9825C506.56 83.9825 507.058 83.9514 507.618 83.8891C508.178 83.8269 508.769 83.7647 509.391 83.7025V95.5558C508.458 95.6802 507.4 95.8047 506.218 95.9291C505.036 96.0536 503.916 96.1158 502.858 96.1158Z" fill="#002855"/>
<path d="M539.342 96.6758C533.929 96.6758 529.231 95.4935 525.249 93.1291C521.267 90.7024 518.187 87.4669 516.009 83.4224C513.831 79.378 512.742 74.898 512.742 69.9824C512.742 64.8802 513.862 60.338 516.102 56.3558C518.404 52.3735 521.484 49.2313 525.342 46.9291C529.2 44.6269 533.556 43.4758 538.409 43.4758C542.453 43.4758 546.031 44.1291 549.142 45.4358C552.253 46.6802 554.867 48.4535 556.982 50.7558C559.16 53.058 560.809 55.7335 561.929 58.7824C563.049 61.7691 563.609 65.0358 563.609 68.5824C563.609 69.578 563.547 70.5735 563.422 71.5691C563.36 72.5024 563.204 73.3113 562.956 73.9958H524.782V63.7291H555.022L548.396 68.5824C549.018 65.9069 548.987 63.5424 548.302 61.4891C547.618 59.3735 546.404 57.7247 544.662 56.5424C542.982 55.298 540.898 54.6758 538.409 54.6758C535.982 54.6758 533.898 55.2669 532.156 56.4491C530.413 57.6313 529.107 59.3735 528.236 61.6758C527.364 63.978 527.022 66.778 527.209 70.0758C526.96 72.938 527.302 75.458 528.236 77.6358C529.169 79.8135 530.6 81.5247 532.529 82.7691C534.458 83.9513 536.791 84.5424 539.529 84.5424C542.018 84.5424 544.133 84.0447 545.876 83.0491C547.68 82.0535 549.08 80.6847 550.076 78.9424L561.276 84.2624C560.28 86.7513 558.693 88.9291 556.516 90.7958C554.4 92.6624 551.88 94.1247 548.956 95.1824C546.031 96.178 542.827 96.6758 539.342 96.6758Z" fill="#002855"/>
</svg>
