<svg width="120" height="120" viewBox="0 0 120 120" fill="none" xmlns="http://www.w3.org/2000/svg">
<g clip-path="url(#clip0_1782_4228)">
<path fill-rule="evenodd" clip-rule="evenodd" d="M30.9869 74.1885H39.0364L34.9131 95.6203H50.0655L63.6629 24.943C55.2947 24.943 47.2291 31.6048 45.648 39.8223L44.138 47.6717H35.8631L34.47 55.2479H42.6804L40.494 66.6123H32.38L30.9869 74.1885ZM84.2911 24.943H69.1389L56.1215 95.7294C64.49 95.7294 72.5009 89.0574 74.0144 80.827L75.2351 74.1885H83.9971L85.3902 66.6123H76.6284L78.7182 55.2479H87.4802L88.8733 47.6717H80.1115L84.2911 24.943Z" fill="#002855"/>
<path fill-rule="evenodd" clip-rule="evenodd" d="M60 112.584C89.0416 112.584 112.584 89.0416 112.584 60C112.584 30.9584 89.0416 7.41573 60 7.41573C30.9584 7.41573 7.41573 30.9584 7.41573 60C7.41573 89.0416 30.9584 112.584 60 112.584ZM60 120C93.1371 120 120 93.1371 120 60C120 26.8629 93.1371 0 60 0C26.8629 0 0 26.8629 0 60C0 93.1371 26.8629 120 60 120Z" fill="#002855"/>
</g>
<defs>
<clipPath id="clip0_1782_4228">
<rect width="120" height="120" fill="white"/>
</clipPath>
</defs>
</svg>
