<svg width="120" height="120" viewBox="0 0 120 120" fill="none" xmlns="http://www.w3.org/2000/svg">
<g clip-path="url(#clip0_1782_4229)">
<path fill-rule="evenodd" clip-rule="evenodd" d="M60 120C93.1373 120 120 93.1373 120 60C120 26.8629 93.1373 0 60 0C26.8629 0 0 26.8629 0 60C0 93.1373 26.8629 120 60 120Z" fill="#002855"/>
<path fill-rule="evenodd" clip-rule="evenodd" d="M62.7252 24.939C54.3568 24.939 46.2913 31.6008 44.7103 39.8184L43.2004 47.6668H33.9886L32.5954 55.2429H41.7428L39.5564 66.6072H30.5056L29.1124 74.1834H38.0989L33.9754 95.616H49.1277L62.7252 24.939ZM85.2285 24.939H70.0763L57.059 95.7255C65.4274 95.7255 73.4383 89.0535 74.9518 80.823L76.173 74.1834H85.8727L87.2655 66.6072H77.5657L79.656 55.2429H89.3557L90.7485 47.6668H81.0487L85.2285 24.939Z" fill="white"/>
</g>
<defs>
<clipPath id="clip0_1782_4229">
<rect width="120" height="120" fill="white"/>
</clipPath>
</defs>
</svg>
