<svg width="374" height="196" viewBox="0 0 374 196" fill="none" xmlns="http://www.w3.org/2000/svg">
<path fill-rule="evenodd" clip-rule="evenodd" d="M161.888 66.7699H169.133L165.422 86.0585H179.059L191.297 22.4489C183.765 22.4489 176.506 28.4445 175.083 35.8403L173.724 42.9047H166.277L165.023 49.7233H172.412L170.445 59.9513H163.142L161.888 66.7699ZM209.862 22.4489H196.225L184.509 86.1567C192.041 86.1567 199.251 80.1519 200.612 72.7445L201.712 66.7699H209.598L210.852 59.9513H202.966L204.846 49.7233H212.732L213.986 42.9047H206.1L209.862 22.4489Z" fill="#002855"/>
<path fill-rule="evenodd" clip-rule="evenodd" d="M188 101.326C214.138 101.326 235.326 80.1374 235.326 54C235.326 27.8626 214.138 6.67416 188 6.67416C161.863 6.67416 140.674 27.8626 140.674 54C140.674 80.1374 161.863 101.326 188 101.326ZM188 108C217.824 108 242 83.8234 242 54C242 24.1766 217.824 0 188 0C158.177 0 134 24.1766 134 54C134 83.8234 158.177 108 188 108Z" fill="#002855"/>
<path d="M1.54395 194V131.42H14.5639V158.468H38.924V131.42H51.944V194H38.924V169.808H14.5639V194H1.54395Z" fill="#002855"/>
<path d="M73.8194 195.008C70.5154 195.008 67.6594 194.476 65.2514 193.412C62.8434 192.348 60.9954 190.836 59.7074 188.876C58.4194 186.86 57.7754 184.48 57.7754 181.736C57.7754 179.16 58.3634 176.892 59.5394 174.932C60.7154 172.916 62.5074 171.236 64.9154 169.892C67.3794 168.548 70.4314 167.596 74.0714 167.036L88.0994 164.768V174.008L76.3394 176.108C74.5474 176.444 73.1754 177.032 72.2234 177.872C71.2714 178.656 70.7954 179.804 70.7954 181.316C70.7954 182.716 71.3274 183.808 72.3914 184.592C73.4554 185.376 74.7714 185.768 76.3394 185.768C78.4114 185.768 80.2314 185.32 81.7994 184.424C83.3674 183.528 84.5714 182.324 85.4114 180.812C86.3074 179.244 86.7554 177.536 86.7554 175.688V163.76C86.7554 162.024 86.0554 160.568 84.6554 159.392C83.3114 158.216 81.4634 157.628 79.1114 157.628C76.8714 157.628 74.8834 158.244 73.1474 159.476C71.4674 160.708 70.2354 162.332 69.4514 164.348L59.3714 159.56C60.2674 156.984 61.6954 154.772 63.6554 152.924C65.6154 151.076 67.9674 149.648 70.7114 148.64C73.4554 147.632 76.4514 147.128 79.6994 147.128C83.5634 147.128 86.9794 147.828 89.9474 149.228C92.9154 150.628 95.2114 152.588 96.8354 155.108C98.5154 157.572 99.3554 160.456 99.3554 163.76V183.92H104.395V194H87.5954V186.608L90.4514 186.104C89.1074 188.12 87.6234 189.8 85.9994 191.144C84.3754 192.432 82.5554 193.384 80.5394 194C78.5234 194.672 76.2834 195.008 73.8194 195.008Z" fill="#002855"/>
<path d="M126.841 195.008C121.801 195.008 117.405 193.832 113.653 191.48C109.957 189.072 107.437 185.852 106.093 181.82L115.333 177.452C116.509 179.916 118.105 181.848 120.121 183.248C122.137 184.648 124.377 185.348 126.841 185.348C128.633 185.348 130.005 184.984 130.957 184.256C131.909 183.528 132.385 182.52 132.385 181.232C132.385 180.56 132.217 180 131.881 179.552C131.545 179.048 131.041 178.6 130.369 178.208C129.697 177.816 128.857 177.48 127.849 177.2L120.037 175.016C116.285 173.952 113.401 172.244 111.385 169.892C109.369 167.484 108.361 164.656 108.361 161.408C108.361 158.552 109.089 156.06 110.545 153.932C112.001 151.804 114.045 150.152 116.677 148.976C119.309 147.744 122.333 147.128 125.749 147.128C130.229 147.128 134.149 148.192 137.509 150.32C140.925 152.392 143.333 155.332 144.733 159.14L135.409 163.508C134.737 161.604 133.505 160.092 131.713 158.972C129.977 157.796 127.989 157.208 125.749 157.208C124.125 157.208 122.837 157.544 121.885 158.216C120.989 158.888 120.541 159.812 120.541 160.988C120.541 161.604 120.709 162.164 121.045 162.668C121.381 163.172 121.913 163.62 122.641 164.012C123.425 164.404 124.377 164.768 125.497 165.104L132.805 167.288C136.613 168.408 139.525 170.116 141.541 172.412C143.557 174.652 144.565 177.424 144.565 180.728C144.565 183.584 143.809 186.076 142.297 188.204C140.841 190.332 138.797 192.012 136.165 193.244C133.533 194.42 130.425 195.008 126.841 195.008Z" fill="#002855"/>
<path d="M149.576 194V130.412H162.176V157.208L160.664 155.192C161.728 152.448 163.436 150.432 165.788 149.144C168.196 147.8 170.996 147.128 174.188 147.128C177.66 147.128 180.684 147.856 183.26 149.312C185.892 150.768 187.936 152.812 189.392 155.444C190.848 158.02 191.576 161.044 191.576 164.516V194H178.976V167.204C178.976 165.412 178.612 163.872 177.884 162.584C177.212 161.296 176.232 160.288 174.944 159.56C173.712 158.832 172.256 158.468 170.576 158.468C168.952 158.468 167.496 158.832 166.208 159.56C164.92 160.288 163.912 161.296 163.184 162.584C162.512 163.872 162.176 165.412 162.176 167.204V194H149.576Z" fill="#002855"/>
<path d="M197.341 194V148.136H209.1V157.208L208.428 155.192C209.492 152.448 211.2 150.432 213.552 149.144C215.96 147.8 218.76 147.128 221.952 147.128C225.424 147.128 228.448 147.856 231.024 149.312C233.656 150.768 235.7 152.812 237.156 155.444C238.612 158.02 239.34 161.044 239.34 164.516V194H226.74V167.204C226.74 165.412 226.376 163.872 225.648 162.584C224.976 161.296 223.996 160.288 222.708 159.56C221.476 158.832 220.02 158.468 218.34 158.468C216.716 158.468 215.26 158.832 213.972 159.56C212.684 160.288 211.676 161.296 210.948 162.584C210.276 163.872 209.94 165.412 209.94 167.204V194H197.341Z" fill="#002855"/>
<path d="M267.87 195.008C263.334 195.008 259.19 193.972 255.438 191.9C251.742 189.828 248.774 187 246.534 183.416C244.35 179.776 243.258 175.66 243.258 171.068C243.258 166.42 244.35 162.304 246.534 158.72C248.774 155.136 251.742 152.308 255.438 150.236C259.19 148.164 263.334 147.128 267.87 147.128C272.406 147.128 276.522 148.164 280.218 150.236C283.914 152.308 286.854 155.136 289.038 158.72C291.278 162.304 292.398 166.42 292.398 171.068C292.398 175.66 291.278 179.776 289.038 183.416C286.854 187 283.914 189.828 280.218 191.9C276.522 193.972 272.406 195.008 267.87 195.008ZM267.87 183.668C270.166 183.668 272.154 183.136 273.834 182.072C275.57 181.008 276.914 179.524 277.866 177.62C278.874 175.716 279.378 173.532 279.378 171.068C279.378 168.604 278.874 166.448 277.866 164.6C276.914 162.696 275.57 161.212 273.834 160.148C272.154 159.028 270.166 158.468 267.87 158.468C265.574 158.468 263.558 159.028 261.822 160.148C260.086 161.212 258.714 162.696 257.706 164.6C256.754 166.448 256.278 168.604 256.278 171.068C256.278 173.532 256.754 175.716 257.706 177.62C258.714 179.524 260.086 181.008 261.822 182.072C263.558 183.136 265.574 183.668 267.87 183.668Z" fill="#002855"/>
<path d="M318.572 194.504C313.028 194.504 308.716 193.02 305.636 190.052C302.612 187.028 301.1 182.828 301.1 177.452V159.056H293.372V148.136H293.792C296.144 148.136 297.936 147.548 299.168 146.372C300.456 145.196 301.1 143.432 301.1 141.08V137.72H313.7V148.136H324.452V159.056H313.7V176.612C313.7 178.18 313.98 179.496 314.54 180.56C315.1 181.568 315.968 182.324 317.144 182.828C318.32 183.332 319.776 183.584 321.512 183.584C321.904 183.584 322.352 183.556 322.856 183.5C323.36 183.444 323.892 183.388 324.452 183.332V194C323.612 194.112 322.66 194.224 321.596 194.336C320.532 194.448 319.524 194.504 318.572 194.504Z" fill="#002855"/>
<path d="M351.408 195.008C346.536 195.008 342.308 193.944 338.724 191.816C335.14 189.632 332.368 186.72 330.408 183.08C328.448 179.44 327.468 175.408 327.468 170.984C327.468 166.392 328.476 162.304 330.492 158.72C332.564 155.136 335.336 152.308 338.808 150.236C342.28 148.164 346.2 147.128 350.568 147.128C354.208 147.128 357.428 147.716 360.228 148.892C363.028 150.012 365.38 151.608 367.284 153.68C369.244 155.752 370.728 158.16 371.736 160.904C372.744 163.592 373.248 166.532 373.248 169.724C373.248 170.62 373.192 171.516 373.08 172.412C373.024 173.252 372.884 173.98 372.66 174.596H338.304V165.356H365.52L359.556 169.724C360.116 167.316 360.088 165.188 359.472 163.34C358.856 161.436 357.764 159.952 356.196 158.888C354.684 157.768 352.808 157.208 350.568 157.208C348.384 157.208 346.508 157.74 344.94 158.804C343.372 159.868 342.196 161.436 341.412 163.508C340.628 165.58 340.32 168.1 340.488 171.068C340.264 173.644 340.572 175.912 341.412 177.872C342.252 179.832 343.54 181.372 345.276 182.492C347.012 183.556 349.112 184.088 351.576 184.088C353.816 184.088 355.72 183.64 357.288 182.744C358.912 181.848 360.172 180.616 361.068 179.048L371.148 183.836C370.252 186.076 368.824 188.036 366.864 189.716C364.96 191.396 362.692 192.712 360.06 193.664C357.428 194.56 354.544 195.008 351.408 195.008Z" fill="#002855"/>
</svg>
