<svg width="419" height="120" viewBox="0 0 419 120" fill="none" xmlns="http://www.w3.org/2000/svg">
<path d="M391.805 94.438V46.6939H402.6V57.3134L401.722 55.7337C402.834 52.1646 404.56 49.6779 406.9 48.2737C409.299 46.8694 412.166 46.1673 415.501 46.1673H418.31V56.348H414.185C410.908 56.348 408.275 57.372 406.286 59.4198C404.296 61.4091 403.302 64.2176 403.302 67.8452V94.438H391.805Z" fill="#002855"/>
<path d="M361.408 95.4911C356.727 95.4911 352.456 94.4087 348.594 92.2438C344.791 90.079 341.748 87.1242 339.467 83.3796C337.243 79.635 336.131 75.3637 336.131 70.5659C336.131 65.7681 337.243 61.4969 339.467 57.7523C341.748 54.0076 344.791 51.0529 348.594 48.888C352.397 46.7232 356.668 45.6407 361.408 45.6407C366.089 45.6407 370.331 46.7232 374.134 48.888C377.937 51.0529 380.95 54.0076 383.173 57.7523C385.455 61.4384 386.596 65.7096 386.596 70.5659C386.596 75.3637 385.455 79.635 383.173 83.3796C380.892 87.1242 377.849 90.079 374.046 92.2438C370.243 94.4087 366.03 95.4911 361.408 95.4911ZM361.408 84.9594C363.982 84.9594 366.235 84.345 368.166 83.1163C370.155 81.8876 371.705 80.1908 372.817 78.0259C373.987 75.8026 374.572 73.3159 374.572 70.5659C374.572 67.7575 373.987 65.3 372.817 63.1937C371.705 61.0288 370.155 59.332 368.166 58.1033C366.235 56.8161 363.982 56.1725 361.408 56.1725C358.775 56.1725 356.464 56.8161 354.474 58.1033C352.485 59.332 350.905 61.0288 349.735 63.1937C348.623 65.3 348.068 67.7575 348.068 70.5659C348.068 73.3159 348.623 75.8026 349.735 78.0259C350.905 80.1908 352.485 81.8876 354.474 83.1163C356.464 84.345 358.775 84.9594 361.408 84.9594Z" fill="#002855"/>
<path d="M308.672 95.4911C305.22 95.4911 302.031 94.8183 299.106 93.4725C296.239 92.0683 293.957 90.079 292.26 87.5045L293.401 85.2227V94.438H282.606V28H294.103V56.1725L292.348 53.8029C293.986 51.2284 296.209 49.2391 299.018 47.8348C301.826 46.3721 305.074 45.6407 308.76 45.6407C313.265 45.6407 317.332 46.7524 320.959 48.9758C324.587 51.1992 327.454 54.1832 329.56 57.9278C331.725 61.6724 332.807 65.8851 332.807 70.5659C332.807 75.1882 331.754 79.4009 329.648 83.2041C327.542 87.0072 324.675 90.0205 321.047 92.2438C317.419 94.4087 313.294 95.4911 308.672 95.4911ZM307.356 84.9594C309.989 84.9594 312.329 84.345 314.377 83.1163C316.425 81.8876 318.004 80.1908 319.116 78.0259C320.286 75.8611 320.871 73.3744 320.871 70.5659C320.871 67.7575 320.286 65.3 319.116 63.1937C318.004 61.0288 316.425 59.332 314.377 58.1033C312.329 56.8161 309.989 56.1725 307.356 56.1725C304.84 56.1725 302.558 56.7869 300.51 58.0156C298.521 59.2443 296.941 60.9703 295.771 63.1937C294.659 65.3586 294.103 67.816 294.103 70.5659C294.103 73.3744 294.659 75.8611 295.771 78.0259C296.941 80.1908 298.521 81.8876 300.51 83.1163C302.558 84.345 304.84 84.9594 307.356 84.9594Z" fill="#002855"/>
<path d="M253.29 94.438V46.6939H264.086V57.3134L263.208 55.7337C264.32 52.1646 266.046 49.6779 268.386 48.2737C270.785 46.8694 273.652 46.1673 276.987 46.1673H279.795V56.348H275.67C272.394 56.348 269.761 57.372 267.772 59.4198C265.782 61.4091 264.788 64.2176 264.788 67.8452V94.438H253.29Z" fill="#002855"/>
<path d="M220.372 95.4911C217.037 95.4911 214.14 94.9353 211.683 93.8236C209.226 92.7119 207.324 91.1321 205.978 89.0843C204.633 86.9779 203.96 84.5498 203.96 81.7998C203.96 79.1669 204.545 76.8265 205.715 74.7786C206.885 72.6723 208.699 70.917 211.156 69.5128C213.614 68.1085 216.715 67.1138 220.46 66.5287L236.082 63.9836V72.7601L222.654 75.0419C220.372 75.4515 218.675 76.1829 217.563 77.2361C216.452 78.2892 215.896 79.6642 215.896 81.361C215.896 82.9993 216.51 84.3158 217.739 85.3104C219.026 86.2466 220.606 86.7147 222.478 86.7147C224.877 86.7147 226.983 86.2173 228.797 85.2227C230.669 84.1695 232.103 82.736 233.098 80.9222C234.151 79.1084 234.677 77.119 234.677 74.9542V62.6671C234.677 60.6193 233.858 58.9225 232.22 57.5767C230.64 56.1725 228.534 55.4704 225.901 55.4704C223.444 55.4704 221.249 56.1432 219.319 57.489C217.446 58.7762 216.071 60.5022 215.194 62.6671L205.803 58.1033C206.739 55.5874 208.202 53.4225 210.191 51.6087C212.239 49.7364 214.638 48.2737 217.388 47.2205C220.138 46.1673 223.122 45.6407 226.34 45.6407C230.26 45.6407 233.712 46.3721 236.696 47.8348C239.68 49.2391 241.991 51.2284 243.629 53.8029C245.326 56.3188 246.175 59.2735 246.175 62.6671V94.438H235.292V86.2758L237.749 86.1003C236.52 88.1481 235.058 89.8742 233.361 91.2784C231.664 92.6242 229.733 93.6773 227.568 94.438C225.404 95.1401 223.005 95.4911 220.372 95.4911Z" fill="#002855"/>
<path d="M146 94.438V29.0532H157.936V57.5767H185.757V29.0532H197.781V94.438H185.757V68.1085H157.936V94.438H146Z" fill="#002855"/>
<path fill-rule="evenodd" clip-rule="evenodd" d="M40.6602 69.2149H46.0263L43.2775 83.5056H53.379L62.444 36.3791C56.8651 36.3791 51.488 40.8211 50.434 46.3004L49.4273 51.5342H43.911L42.9822 56.5858H48.4556L46.998 64.1632H41.589L40.6602 69.2149ZM76.1963 36.3791H66.0947L57.4165 83.5781C62.9955 83.5781 68.336 79.1293 69.3451 73.6415L70.159 69.2149H76.0003L76.9291 64.1632H71.0878L72.481 56.5858H78.3223L79.2511 51.5342H73.4098L76.1963 36.3791Z" fill="#002855"/>
<path fill-rule="evenodd" clip-rule="evenodd" d="M60 94.8162C79.361 94.8162 95.0562 79.1183 95.0562 59.754C95.0562 40.3898 79.361 24.6919 60 24.6919C40.639 24.6919 24.9438 40.3898 24.9438 59.754C24.9438 79.1183 40.639 94.8162 60 94.8162ZM60 99.7608C82.0914 99.7608 100 81.8491 100 59.754C100 37.6589 82.0914 19.7473 60 19.7473C37.9086 19.7473 20 37.6589 20 59.754C20 81.8491 37.9086 99.7608 60 99.7608Z" fill="#002855"/>
<path d="M58.4258 0C26.0163 0.834856 0 27.3736 0 59.9899C0 70.2841 2.59159 79.9729 7.15782 88.4393L14.0907 84.4359C10.2034 77.1484 8 68.8265 8 59.9899C8 31.7929 30.4352 8.83686 58.4258 8.00447V0Z" fill="url(#paint0_linear_1782_4235)"/>
<path d="M60 120C38.5851 120 19.7906 108.779 9.17333 91.8951L16.1081 87.8906C25.3375 102.384 41.5462 111.999 60 111.999C78.6063 111.999 94.9302 102.225 104.119 87.5303L111.052 91.5337C100.477 108.619 81.5673 120 60 120Z" fill="url(#paint1_linear_1782_4235)"/>
<path d="M113.043 88.0638C117.484 79.6869 120 70.1322 120 59.9899C120 27.6598 94.4382 1.30101 62.4258 0.0278969V8.03668C90.0184 9.30395 112 32.0794 112 59.9899C112 68.6746 109.872 76.8622 106.108 84.0593L113.043 88.0638Z" fill="url(#paint2_linear_1782_4235)"/>
<defs>
<linearGradient id="paint0_linear_1782_4235" x1="7.92453" y1="120" x2="129.494" y2="-33.3359" gradientUnits="userSpaceOnUse">
<stop offset="0.0905745" stop-color="#D1D8E0"/>
<stop offset="0.94" stop-color="#002855"/>
</linearGradient>
<linearGradient id="paint1_linear_1782_4235" x1="7.92453" y1="120" x2="129.494" y2="-33.3359" gradientUnits="userSpaceOnUse">
<stop offset="0.0905745" stop-color="#D1D8E0"/>
<stop offset="0.94" stop-color="#002855"/>
</linearGradient>
<linearGradient id="paint2_linear_1782_4235" x1="7.92453" y1="120" x2="129.494" y2="-33.3359" gradientUnits="userSpaceOnUse">
<stop offset="0.0905745" stop-color="#D1D8E0"/>
<stop offset="0.94" stop-color="#002855"/>
</linearGradient>
</defs>
</svg>
