<svg width="120" height="120" viewBox="0 0 120 120" fill="none" xmlns="http://www.w3.org/2000/svg">
<path fill-rule="evenodd" clip-rule="evenodd" d="M40.6602 69.2149H46.0263L43.2775 83.5056H53.379L62.444 36.3791C56.8651 36.3791 51.488 40.8211 50.434 46.3004L49.4273 51.5342H43.911L42.9822 56.5858H48.4556L46.998 64.1632H41.589L40.6602 69.2149ZM76.1963 36.3791H66.0947L57.4165 83.5781C62.9955 83.5781 68.336 79.1293 69.3451 73.6415L70.159 69.2149H76.0003L76.9291 64.1632H71.0878L72.481 56.5858H78.3223L79.2511 51.5342H73.4098L76.1963 36.3791Z" fill="#002855"/>
<path fill-rule="evenodd" clip-rule="evenodd" d="M60 94.8162C79.361 94.8162 95.0562 79.1183 95.0562 59.754C95.0562 40.3898 79.361 24.6919 60 24.6919C40.639 24.6919 24.9438 40.3898 24.9438 59.754C24.9438 79.1183 40.639 94.8162 60 94.8162ZM60 99.7608C82.0914 99.7608 100 81.8491 100 59.754C100 37.6589 82.0914 19.7473 60 19.7473C37.9086 19.7473 20 37.6589 20 59.754C20 81.8491 37.9086 99.7608 60 99.7608Z" fill="#002855"/>
<path d="M58.4258 0C26.0163 0.834856 0 27.3736 0 59.9899C0 70.2841 2.59159 79.9729 7.15782 88.4393L14.0907 84.4359C10.2034 77.1484 8 68.8265 8 59.9899C8 31.7929 30.4352 8.83686 58.4258 8.00447V0Z" fill="url(#paint0_linear_1782_4234)"/>
<path d="M60 120C38.5851 120 19.7906 108.779 9.17333 91.8951L16.1081 87.8906C25.3375 102.384 41.5462 111.999 60 111.999C78.6063 111.999 94.9302 102.225 104.119 87.5303L111.052 91.5337C100.477 108.619 81.5673 120 60 120Z" fill="url(#paint1_linear_1782_4234)"/>
<path d="M113.043 88.0638C117.484 79.6869 120 70.1322 120 59.9899C120 27.6598 94.4382 1.30101 62.4258 0.0278969V8.03668C90.0184 9.30395 112 32.0794 112 59.9899C112 68.6746 109.872 76.8622 106.108 84.0593L113.043 88.0638Z" fill="url(#paint2_linear_1782_4234)"/>
<defs>
<linearGradient id="paint0_linear_1782_4234" x1="7.92453" y1="120" x2="129.494" y2="-33.3359" gradientUnits="userSpaceOnUse">
<stop offset="0.0905745" stop-color="#D1D8E0"/>
<stop offset="0.94" stop-color="#002855"/>
</linearGradient>
<linearGradient id="paint1_linear_1782_4234" x1="7.92453" y1="120" x2="129.494" y2="-33.3359" gradientUnits="userSpaceOnUse">
<stop offset="0.0905745" stop-color="#D1D8E0"/>
<stop offset="0.94" stop-color="#002855"/>
</linearGradient>
<linearGradient id="paint2_linear_1782_4234" x1="7.92453" y1="120" x2="129.494" y2="-33.3359" gradientUnits="userSpaceOnUse">
<stop offset="0.0905745" stop-color="#D1D8E0"/>
<stop offset="0.94" stop-color="#002855"/>
</linearGradient>
</defs>
</svg>
