<svg width="419" height="164" viewBox="0 0 419 164" fill="none" xmlns="http://www.w3.org/2000/svg">
<path d="M391.805 94.438V46.6939H402.6V57.3134L401.722 55.7337C402.834 52.1646 404.56 49.6779 406.9 48.2737C409.299 46.8694 412.166 46.1673 415.501 46.1673H418.31V56.348H414.185C410.908 56.348 408.275 57.372 406.286 59.4198C404.296 61.4091 403.302 64.2176 403.302 67.8452V94.438H391.805Z" fill="#002855"/>
<path d="M361.408 95.4911C356.727 95.4911 352.456 94.4087 348.594 92.2438C344.791 90.079 341.748 87.1242 339.467 83.3796C337.243 79.635 336.131 75.3637 336.131 70.5659C336.131 65.7681 337.243 61.4969 339.467 57.7523C341.748 54.0076 344.791 51.0529 348.594 48.888C352.397 46.7232 356.668 45.6407 361.408 45.6407C366.089 45.6407 370.331 46.7232 374.134 48.888C377.937 51.0529 380.95 54.0076 383.173 57.7523C385.455 61.4384 386.596 65.7096 386.596 70.5659C386.596 75.3637 385.455 79.635 383.173 83.3796C380.892 87.1242 377.849 90.079 374.046 92.2438C370.243 94.4087 366.03 95.4911 361.408 95.4911ZM361.408 84.9594C363.982 84.9594 366.235 84.345 368.166 83.1163C370.155 81.8876 371.705 80.1908 372.817 78.0259C373.987 75.8026 374.572 73.3159 374.572 70.5659C374.572 67.7575 373.987 65.3 372.817 63.1937C371.705 61.0288 370.155 59.332 368.166 58.1033C366.235 56.8161 363.982 56.1725 361.408 56.1725C358.775 56.1725 356.464 56.8161 354.474 58.1033C352.485 59.332 350.905 61.0288 349.735 63.1937C348.623 65.3 348.068 67.7575 348.068 70.5659C348.068 73.3159 348.623 75.8026 349.735 78.0259C350.905 80.1908 352.485 81.8876 354.474 83.1163C356.464 84.345 358.775 84.9594 361.408 84.9594Z" fill="#002855"/>
<path d="M308.672 95.4911C305.22 95.4911 302.031 94.8183 299.106 93.4725C296.239 92.0683 293.957 90.079 292.26 87.5045L293.401 85.2227V94.438H282.606V28H294.103V56.1725L292.348 53.8029C293.986 51.2284 296.209 49.2391 299.018 47.8348C301.826 46.3721 305.074 45.6407 308.76 45.6407C313.265 45.6407 317.332 46.7524 320.959 48.9758C324.587 51.1992 327.454 54.1832 329.56 57.9278C331.725 61.6724 332.807 65.8851 332.807 70.5659C332.807 75.1882 331.754 79.4009 329.648 83.2041C327.542 87.0072 324.675 90.0205 321.047 92.2438C317.419 94.4087 313.294 95.4911 308.672 95.4911ZM307.356 84.9594C309.989 84.9594 312.329 84.345 314.377 83.1163C316.425 81.8876 318.004 80.1908 319.116 78.0259C320.286 75.8611 320.871 73.3744 320.871 70.5659C320.871 67.7575 320.286 65.3 319.116 63.1937C318.004 61.0288 316.425 59.332 314.377 58.1033C312.329 56.8161 309.989 56.1725 307.356 56.1725C304.84 56.1725 302.558 56.7869 300.51 58.0156C298.521 59.2443 296.941 60.9703 295.771 63.1937C294.659 65.3586 294.103 67.816 294.103 70.5659C294.103 73.3744 294.659 75.8611 295.771 78.0259C296.941 80.1908 298.521 81.8876 300.51 83.1163C302.558 84.345 304.84 84.9594 307.356 84.9594Z" fill="#002855"/>
<path d="M253.29 94.438V46.6939H264.086V57.3134L263.208 55.7337C264.32 52.1646 266.046 49.6779 268.386 48.2737C270.785 46.8694 273.652 46.1673 276.987 46.1673H279.795V56.348H275.67C272.394 56.348 269.761 57.372 267.772 59.4198C265.782 61.4091 264.788 64.2176 264.788 67.8452V94.438H253.29Z" fill="#002855"/>
<path d="M220.372 95.4911C217.037 95.4911 214.14 94.9353 211.683 93.8236C209.226 92.7119 207.324 91.1321 205.978 89.0843C204.633 86.9779 203.96 84.5498 203.96 81.7998C203.96 79.1669 204.545 76.8265 205.715 74.7786C206.885 72.6723 208.699 70.917 211.156 69.5128C213.614 68.1085 216.715 67.1138 220.46 66.5287L236.082 63.9836V72.7601L222.654 75.0419C220.372 75.4515 218.675 76.1829 217.563 77.2361C216.452 78.2892 215.896 79.6642 215.896 81.361C215.896 82.9993 216.51 84.3158 217.739 85.3104C219.026 86.2466 220.606 86.7147 222.478 86.7147C224.877 86.7147 226.983 86.2173 228.797 85.2227C230.669 84.1695 232.103 82.736 233.098 80.9222C234.151 79.1084 234.677 77.119 234.677 74.9542V62.6671C234.677 60.6193 233.858 58.9225 232.22 57.5767C230.64 56.1725 228.534 55.4704 225.901 55.4704C223.444 55.4704 221.249 56.1432 219.319 57.489C217.446 58.7762 216.071 60.5022 215.194 62.6671L205.803 58.1033C206.739 55.5874 208.202 53.4225 210.191 51.6087C212.239 49.7364 214.638 48.2737 217.388 47.2205C220.138 46.1673 223.122 45.6407 226.34 45.6407C230.26 45.6407 233.712 46.3721 236.696 47.8348C239.68 49.2391 241.991 51.2284 243.629 53.8029C245.326 56.3188 246.175 59.2735 246.175 62.6671V94.438H235.292V86.2758L237.749 86.1003C236.52 88.1481 235.058 89.8742 233.361 91.2784C231.664 92.6242 229.733 93.6773 227.568 94.438C225.404 95.1401 223.005 95.4911 220.372 95.4911Z" fill="#002855"/>
<path d="M146 94.438V29.0532H157.936V57.5767H185.757V29.0532H197.781V94.438H185.757V68.1085H157.936V94.438H146Z" fill="#002855"/>
<path d="M228.055 163.172C227.623 163.172 227.191 163.136 226.759 163.064C226.327 163.016 225.919 162.908 225.535 162.74V159.752C225.799 159.776 226.123 159.824 226.507 159.896C226.915 159.968 227.311 160.004 227.695 160.004C228.823 160.004 229.675 159.752 230.251 159.248C230.851 158.744 231.415 157.892 231.943 156.692L233.167 153.776L233.095 156.692L224.815 135.848H228.451L234.895 152.408H233.815L240.223 135.848H243.931L235.183 157.556C234.775 158.588 234.247 159.536 233.599 160.4C232.975 161.264 232.207 161.936 231.295 162.416C230.383 162.92 229.303 163.172 228.055 163.172Z" fill="#4B5563"/>
<path d="M214.044 155.684C212.484 155.684 211.056 155.336 209.76 154.64C208.488 153.944 207.504 152.96 206.808 151.688L207.276 151.112V155.252H204V128H207.348V140.024L206.844 139.196C207.564 138.044 208.548 137.132 209.796 136.46C211.044 135.764 212.472 135.416 214.08 135.416C215.904 135.416 217.536 135.86 218.976 136.748C220.44 137.636 221.592 138.848 222.432 140.384C223.272 141.896 223.692 143.624 223.692 145.568C223.692 147.464 223.272 149.18 222.432 150.716C221.592 152.252 220.44 153.464 218.976 154.352C217.536 155.24 215.892 155.684 214.044 155.684ZM213.792 152.444C215.016 152.444 216.108 152.144 217.068 151.544C218.028 150.944 218.772 150.128 219.3 149.096C219.852 148.04 220.128 146.864 220.128 145.568C220.128 144.224 219.852 143.048 219.3 142.04C218.772 141.008 218.028 140.192 217.068 139.592C216.108 138.968 215.016 138.656 213.792 138.656C212.568 138.656 211.464 138.956 210.48 139.556C209.52 140.156 208.752 140.984 208.176 142.04C207.624 143.072 207.348 144.248 207.348 145.568C207.348 146.864 207.624 148.04 208.176 149.096C208.752 150.128 209.52 150.944 210.48 151.544C211.464 152.144 212.568 152.444 213.792 152.444Z" fill="#4B5563"/>
<path d="M409.177 155.684C407.161 155.684 405.397 155.228 403.885 154.316C402.373 153.404 401.197 152.168 400.357 150.608C399.517 149.048 399.097 147.32 399.097 145.424C399.097 143.456 399.517 141.716 400.357 140.204C401.221 138.668 402.385 137.456 403.849 136.568C405.337 135.68 406.993 135.236 408.817 135.236C410.353 135.236 411.697 135.488 412.849 135.992C414.025 136.496 415.021 137.192 415.837 138.08C416.653 138.968 417.277 139.988 417.709 141.14C418.141 142.268 418.357 143.492 418.357 144.812C418.357 145.148 418.333 145.496 418.285 145.856C418.261 146.216 418.201 146.528 418.105 146.792H402.985V143.192H415.441L413.209 144.884C413.425 143.78 413.365 142.796 413.029 141.932C412.717 141.068 412.189 140.384 411.445 139.88C410.725 139.376 409.849 139.124 408.817 139.124C407.833 139.124 406.957 139.376 406.189 139.88C405.421 140.36 404.833 141.08 404.425 142.04C404.041 142.976 403.897 144.116 403.993 145.46C403.897 146.66 404.053 147.728 404.461 148.664C404.893 149.576 405.517 150.284 406.333 150.788C407.173 151.292 408.133 151.544 409.213 151.544C410.293 151.544 411.205 151.316 411.949 150.86C412.717 150.404 413.317 149.792 413.749 149.024L417.565 150.896C417.181 151.832 416.581 152.66 415.765 153.38C414.949 154.1 413.977 154.664 412.849 155.072C411.745 155.48 410.521 155.684 409.177 155.684Z" fill="#002855"/>
<path d="M394.122 155.468C391.914 155.468 390.198 154.868 388.974 153.668C387.774 152.444 387.174 150.728 387.174 148.52V139.88H383.79V135.668H384.15C385.11 135.668 385.854 135.416 386.382 134.912C386.91 134.408 387.174 133.676 387.174 132.716V131.204H391.89V135.668H396.39V139.88H391.89V148.268C391.89 148.916 391.998 149.468 392.214 149.924C392.454 150.38 392.814 150.728 393.294 150.968C393.798 151.208 394.434 151.328 395.202 151.328C395.37 151.328 395.562 151.316 395.778 151.292C396.018 151.268 396.246 151.244 396.462 151.22V155.252C396.126 155.3 395.742 155.348 395.31 155.396C394.878 155.444 394.482 155.468 394.122 155.468Z" fill="#002855"/>
<path d="M371.637 155.684C369.717 155.684 367.965 155.24 366.381 154.352C364.821 153.464 363.573 152.252 362.637 150.716C361.725 149.18 361.269 147.428 361.269 145.46C361.269 143.492 361.725 141.74 362.637 140.204C363.573 138.668 364.821 137.456 366.381 136.568C367.941 135.68 369.693 135.236 371.637 135.236C373.557 135.236 375.297 135.68 376.857 136.568C378.417 137.456 379.653 138.668 380.565 140.204C381.501 141.716 381.969 143.468 381.969 145.46C381.969 147.428 381.501 149.18 380.565 150.716C379.629 152.252 378.381 153.464 376.821 154.352C375.261 155.24 373.533 155.684 371.637 155.684ZM371.637 151.364C372.693 151.364 373.617 151.112 374.409 150.608C375.225 150.104 375.861 149.408 376.317 148.52C376.797 147.608 377.037 146.588 377.037 145.46C377.037 144.308 376.797 143.3 376.317 142.436C375.861 141.548 375.225 140.852 374.409 140.348C373.617 139.82 372.693 139.556 371.637 139.556C370.557 139.556 369.609 139.82 368.793 140.348C367.977 140.852 367.329 141.548 366.849 142.436C366.393 143.3 366.165 144.308 366.165 145.46C366.165 146.588 366.393 147.608 366.849 148.52C367.329 149.408 367.977 150.104 368.793 150.608C369.609 151.112 370.557 151.364 371.637 151.364Z" fill="#002855"/>
<path d="M340.721 155.252V135.668H345.149V139.52L344.789 138.836C345.245 137.66 345.989 136.772 347.021 136.172C348.077 135.548 349.301 135.236 350.693 135.236C352.133 135.236 353.405 135.548 354.509 136.172C355.637 136.796 356.513 137.672 357.137 138.8C357.761 139.904 358.073 141.188 358.073 142.652V155.252H353.357V143.768C353.357 142.904 353.189 142.16 352.853 141.536C352.517 140.912 352.049 140.432 351.449 140.096C350.873 139.736 350.189 139.556 349.397 139.556C348.629 139.556 347.945 139.736 347.345 140.096C346.745 140.432 346.277 140.912 345.941 141.536C345.605 142.16 345.437 142.904 345.437 143.768V155.252H340.721Z" fill="#002855"/>
<path d="M319.381 155.252V128H324.097V139.52L323.449 138.836C323.905 137.66 324.649 136.772 325.681 136.172C326.737 135.548 327.961 135.236 329.353 135.236C330.793 135.236 332.065 135.548 333.169 136.172C334.297 136.796 335.173 137.672 335.797 138.8C336.421 139.904 336.733 141.188 336.733 142.652V155.252H332.017V143.768C332.017 142.904 331.849 142.16 331.513 141.536C331.177 140.912 330.709 140.432 330.109 140.096C329.533 139.736 328.849 139.556 328.057 139.556C327.289 139.556 326.605 139.736 326.005 140.096C325.405 140.432 324.937 140.912 324.601 141.536C324.265 142.16 324.097 142.904 324.097 143.768V155.252H319.381Z" fill="#002855"/>
<path d="M308.341 155.684C306.253 155.684 304.429 155.192 302.869 154.208C301.333 153.2 300.277 151.844 299.701 150.14L303.229 148.448C303.733 149.552 304.429 150.416 305.317 151.04C306.229 151.664 307.237 151.976 308.341 151.976C309.205 151.976 309.889 151.784 310.393 151.4C310.897 151.016 311.149 150.512 311.149 149.888C311.149 149.504 311.041 149.192 310.825 148.952C310.633 148.688 310.357 148.472 309.997 148.304C309.661 148.112 309.289 147.956 308.881 147.836L305.677 146.936C304.021 146.456 302.761 145.724 301.897 144.74C301.057 143.756 300.637 142.592 300.637 141.248C300.637 140.048 300.937 139.004 301.537 138.116C302.161 137.204 303.013 136.496 304.093 135.992C305.197 135.488 306.457 135.236 307.873 135.236C309.721 135.236 311.353 135.68 312.769 136.568C314.185 137.456 315.193 138.704 315.793 140.312L312.193 142.004C311.857 141.116 311.293 140.408 310.501 139.88C309.709 139.352 308.821 139.088 307.837 139.088C307.045 139.088 306.421 139.268 305.965 139.628C305.509 139.988 305.281 140.456 305.281 141.032C305.281 141.392 305.377 141.704 305.569 141.968C305.761 142.232 306.025 142.448 306.361 142.616C306.721 142.784 307.129 142.94 307.585 143.084L310.717 144.02C312.325 144.5 313.561 145.22 314.425 146.18C315.313 147.14 315.757 148.316 315.757 149.708C315.757 150.884 315.445 151.928 314.821 152.84C314.197 153.728 313.333 154.424 312.229 154.928C311.125 155.432 309.829 155.684 308.341 155.684Z" fill="#002855"/>
<path d="M285.946 155.684C284.578 155.684 283.39 155.456 282.382 155C281.374 154.544 280.594 153.896 280.042 153.056C279.49 152.192 279.214 151.196 279.214 150.068C279.214 148.988 279.454 148.028 279.934 147.188C280.414 146.324 281.158 145.604 282.166 145.028C283.174 144.452 284.446 144.044 285.982 143.804L292.39 142.76V146.36L286.882 147.296C285.946 147.464 285.25 147.764 284.794 148.196C284.338 148.628 284.11 149.192 284.11 149.888C284.11 150.56 284.362 151.1 284.866 151.508C285.394 151.892 286.042 152.084 286.81 152.084C287.794 152.084 288.658 151.88 289.402 151.472C290.17 151.04 290.758 150.452 291.166 149.708C291.598 148.964 291.814 148.148 291.814 147.26V142.22C291.814 141.38 291.478 140.684 290.806 140.132C290.158 139.556 289.294 139.268 288.214 139.268C287.206 139.268 286.306 139.544 285.514 140.096C284.746 140.624 284.182 141.332 283.822 142.22L279.97 140.348C280.354 139.316 280.954 138.428 281.77 137.684C282.61 136.916 283.594 136.316 284.722 135.884C285.85 135.452 287.074 135.236 288.394 135.236C290.002 135.236 291.418 135.536 292.642 136.136C293.866 136.712 294.814 137.528 295.486 138.584C296.182 139.616 296.53 140.828 296.53 142.22V155.252H292.066V151.904L293.074 151.832C292.57 152.672 291.97 153.38 291.274 153.956C290.578 154.508 289.786 154.94 288.898 155.252C288.01 155.54 287.026 155.684 285.946 155.684Z" fill="#002855"/>
<path d="M254 155.252V128.432H258.896V140.132H270.308V128.432H275.24V155.252H270.308V144.452H258.896V155.252H254Z" fill="#002855"/>
<path fill-rule="evenodd" clip-rule="evenodd" d="M40.6602 69.2149H46.0263L43.2775 83.5056H53.379L62.444 36.3791C56.8651 36.3791 51.488 40.8211 50.434 46.3004L49.4273 51.5342H43.911L42.9822 56.5858H48.4556L46.998 64.1632H41.589L40.6602 69.2149ZM76.1963 36.3791H66.0947L57.4165 83.5781C62.9955 83.5781 68.336 79.1293 69.3451 73.6415L70.159 69.2149H76.0003L76.9291 64.1632H71.0878L72.481 56.5858H78.3223L79.2511 51.5342H73.4098L76.1963 36.3791Z" fill="#002855"/>
<path fill-rule="evenodd" clip-rule="evenodd" d="M60 94.8162C79.361 94.8162 95.0562 79.1183 95.0562 59.754C95.0562 40.3898 79.361 24.6919 60 24.6919C40.639 24.6919 24.9438 40.3898 24.9438 59.754C24.9438 79.1183 40.639 94.8162 60 94.8162ZM60 99.7608C82.0914 99.7608 100 81.8491 100 59.754C100 37.6589 82.0914 19.7473 60 19.7473C37.9086 19.7473 20 37.6589 20 59.754C20 81.8491 37.9086 99.7608 60 99.7608Z" fill="#002855"/>
<path d="M58.4258 0C26.0163 0.834856 0 27.3736 0 59.9899C0 70.2841 2.59159 79.9729 7.15782 88.4393L14.0907 84.4359C10.2034 77.1484 8 68.8265 8 59.9899C8 31.7929 30.4352 8.83686 58.4258 8.00447V0Z" fill="url(#paint0_linear_1782_4236)"/>
<path d="M60 120C38.5851 120 19.7906 108.779 9.17333 91.8951L16.1081 87.8906C25.3375 102.384 41.5462 111.999 60 111.999C78.6063 111.999 94.9302 102.225 104.119 87.5303L111.052 91.5337C100.477 108.619 81.5673 120 60 120Z" fill="url(#paint1_linear_1782_4236)"/>
<path d="M113.043 88.0638C117.484 79.6869 120 70.1322 120 59.9899C120 27.6598 94.4382 1.30101 62.4258 0.0278969V8.03668C90.0184 9.30395 112 32.0794 112 59.9899C112 68.6746 109.872 76.8622 106.108 84.0593L113.043 88.0638Z" fill="url(#paint2_linear_1782_4236)"/>
<defs>
<linearGradient id="paint0_linear_1782_4236" x1="7.92453" y1="120" x2="129.494" y2="-33.3359" gradientUnits="userSpaceOnUse">
<stop offset="0.0905745" stop-color="#D1D8E0"/>
<stop offset="0.94" stop-color="#002855"/>
</linearGradient>
<linearGradient id="paint1_linear_1782_4236" x1="7.92453" y1="120" x2="129.494" y2="-33.3359" gradientUnits="userSpaceOnUse">
<stop offset="0.0905745" stop-color="#D1D8E0"/>
<stop offset="0.94" stop-color="#002855"/>
</linearGradient>
<linearGradient id="paint2_linear_1782_4236" x1="7.92453" y1="120" x2="129.494" y2="-33.3359" gradientUnits="userSpaceOnUse">
<stop offset="0.0905745" stop-color="#D1D8E0"/>
<stop offset="0.94" stop-color="#002855"/>
</linearGradient>
</defs>
</svg>
